<svg width="24" height="25" viewBox="0 0 24 25" fill="none" xmlns="http://www.w3.org/2000/svg">
<path d="M6.5 22.1211H1.5V9.12109H6.5V22.1211ZM15.5 13.1211C14.9696 13.1211 14.4609 13.3318 14.0858 13.7069C13.7107 14.082 13.5 14.5907 13.5 15.1211V22.1211H8.5V9.12109H13.5V10.6061C14.6163 9.65999 16.0268 9.13147 17.49 9.11109C20.452 9.11109 22.5 11.3111 22.5 15.4661V22.1211H17.5V15.1211C17.5 14.5907 17.2893 14.082 16.9142 13.7069C16.5391 13.3318 16.0304 13.1211 15.5 13.1211ZM6.5 4.62109C6.5 5.11555 6.35338 5.5989 6.07867 6.01002C5.80397 6.42114 5.41352 6.74157 4.95671 6.93079C4.49989 7.12001 3.99723 7.16952 3.51228 7.07306C3.02732 6.97659 2.58187 6.73849 2.23223 6.38886C1.8826 6.03923 1.6445 5.59377 1.54804 5.10882C1.45157 4.62387 1.50108 4.1212 1.6903 3.66439C1.87952 3.20757 2.19995 2.81712 2.61108 2.54242C3.0222 2.26772 3.50555 2.12109 4 2.12109C4.66304 2.12109 5.29893 2.38449 5.76777 2.85333C6.23661 3.32217 6.5 3.95805 6.5 4.62109Z" stroke="#2D2D29" stroke-width="0.8" stroke-linecap="round" stroke-linejoin="round"/>
</svg>
