<?xml version="1.0" encoding="UTF-8"?>
<svg id="Capa_2" data-name="Capa 2" xmlns="http://www.w3.org/2000/svg" viewBox="0 0 304.6 84.06">
  <defs>
    <style>
      .cls-1 {
        fill: #1d1d1b;
      }
    </style>
  </defs>
  <g id="Capa_2-2" data-name="Capa 2">
    <g>
      <path d="M160.81,43.92v-22.53l-5.2-.23v-4.55s5.2,0,5.2,0V7.83l10.38-1.99v10.77h18.77v-8.37l10.78-2.39v10.77h27.96v35.29l-1,.2h-10.18v-30.7h-16.78v21.33c0,3.64,4.84,6.95,9.98,2.99l1.44,5.2c-2.43,1.26-7.11,2.15-11.71,2.15-5.4,0-10.49-4.57-10.49-9.34v-22.33h-18.77v18.54c0,6.77,4.65,8.54,10.38,5.78l1.62,4.95c-6.48,4.05-22.38,3.48-22.38-6.75"/>
      <polygon points="42.75 2.02 42.78 6.01 15.08 45.31 50.57 45.31 50.57 17.5 61.36 15.51 61.36 52.09 0 52.09 0 48.23 28.21 9.03 4.48 9.03 4.48 2.25 42.75 2.02"/>
      <path d="M70.78,17.4l10.64-2.19-.06,4.58c4.34-3.32,7.17-4.28,14.14-4.28,7.69,0,12.03,5.45,12.03,12.76v23.82h-10.35l-.04-20.89c0-5.77-2.32-9.05-7.39-9.05-4.1,0-8.59,3.28-8.59,8.83v21.1h-10.38V17.4Z"/>
      <path d="M268.25,17.81l-2.78,5.8c-24.89-9.09-23.19,31.5.59,20.92l2.59,5.96c-4.9,2.02-9.61,2.92-14.96,2.39-8.23-.82-16-6.93-16.98-15.35-2.14-18.47,16.38-26.06,31.55-19.72Z"/>
      <path d="M274.28,20.45l3.36,4.92c4.43-4.31,14.4-6.27,16.58,1.2-9.96,2.63-24.55,4.43-22.73,18.11.38,2.85,3.34,6.52,6.07,7.49,6.84,2.44,11.54-.91,16.65-4.86l-.39,4.78h9.79l1-.2v-24.72c0-13.91-22.73-14.3-30.32-6.73ZM291.41,43.52c-4.33,5.26-10.95,3.05-9.49-4.29.9-4.52,8.4-6.71,12.28-7.47.17,3.77-.31,8.75-2.79,11.76Z"/>
      <path d="M116.86,41.14c4.51,13.1,23.92,15.17,33.81,7.34l-3.47-4.65c-8.95,4.24-20.11,3.85-20.34-8.49l24.48-.05c0-11.79-5.12-19.69-17.08-19.69-9.58,0-18.79,6.42-18.79,18.73,0,2.12.56,4.39,1.4,6.81ZM140.99,29.76h-14.13c0-11.2,14.13-11.48,14.13,0Z"/>
      <circle cx="55.62" cy="6.16" r="6.16"/>
      <circle cx="223.15" cy="6.16" r="6.16"/>
      <g>
        <path class="cls-1" d="M12.56,68v1.76H3.81v4.99h8.16v1.76H3.81v5.43h8.82v1.76H1.72v-15.71h10.85Z"/>
        <path class="cls-1" d="M17.18,72.33h2.4l2.73,3.98,2.84-3.98h2.24l-3.92,5.24,4.4,6.14h-2.4l-3.17-4.71-3.17,4.71h-2.27l4.27-5.98-3.96-5.39Z"/>
        <path class="cls-1" d="M40.77,82.98c-.85.65-1.92.97-3.21.97-.91,0-1.7-.15-2.37-.44-.67-.29-1.23-.7-1.68-1.23-.46-.53-.8-1.16-1.02-1.89s-.36-1.53-.38-2.4c0-.87.13-1.66.4-2.38s.63-1.34,1.11-1.87,1.04-.94,1.69-1.23c.65-.29,1.37-.44,2.15-.44,1.01,0,1.85.21,2.52.63.67.42,1.2.95,1.61,1.59.4.65.68,1.35.84,2.11.15.76.22,1.49.19,2.18h-8.51c-.01.5.04.97.18,1.42.13.45.34.84.64,1.19s.67.62,1.12.83c.45.21.99.31,1.61.31.79,0,1.44-.18,1.95-.55.51-.37.84-.92,1-1.67h1.85c-.25,1.28-.8,2.24-1.65,2.88ZM40.31,75.68c-.17-.4-.4-.74-.68-1.02-.29-.29-.62-.51-1.01-.68-.39-.17-.82-.25-1.29-.25s-.92.08-1.31.25c-.39.17-.72.4-1,.69-.28.29-.5.63-.66,1.02-.16.39-.26.8-.29,1.24h6.53c-.03-.44-.13-.86-.3-1.25Z"/>
        <path class="cls-1" d="M54.56,74.31c-.47-.4-1.1-.59-1.89-.59-.67,0-1.24.12-1.69.37-.46.25-.82.58-1.09.99-.27.41-.47.88-.58,1.42-.12.54-.18,1.09-.18,1.66,0,.53.06,1.04.19,1.54.12.5.32.94.58,1.33s.61.7,1.03.94c.42.23.93.35,1.52.35.92,0,1.65-.24,2.17-.73.52-.48.84-1.17.96-2.05h1.91c-.21,1.41-.73,2.49-1.57,3.26-.84.76-1.99,1.14-3.44,1.14-.87,0-1.63-.14-2.3-.42s-1.22-.67-1.67-1.19c-.45-.51-.78-1.13-1.01-1.84-.23-.71-.34-1.49-.34-2.34s.11-1.65.33-2.39c.22-.74.55-1.39,1-1.94.45-.55,1.01-.98,1.68-1.3.67-.31,1.46-.47,2.35-.47.65,0,1.25.08,1.81.23.56.15,1.06.39,1.5.72.43.32.79.73,1.07,1.22.28.49.45,1.07.53,1.75h-1.94c-.15-.72-.45-1.28-.92-1.67Z"/>
        <path class="cls-1" d="M70.47,83.71v-1.8h-.04c-.4.7-.9,1.22-1.52,1.55-.62.33-1.34.5-2.18.5-.75,0-1.37-.1-1.87-.3-.5-.2-.9-.48-1.21-.85-.31-.37-.52-.8-.65-1.31-.12-.51-.19-1.07-.19-1.68v-7.48h1.87v7.7c0,.7.21,1.26.62,1.67.41.41.98.62,1.69.62.57,0,1.07-.09,1.49-.26.42-.18.77-.43,1.04-.75.28-.32.49-.7.63-1.13.14-.43.21-.91.21-1.42v-6.42h1.87v11.37h-1.76Z"/>
        <path class="cls-1" d="M83.14,72.33v1.65h-2.27v7.06c0,.22.02.4.06.53.04.13.11.23.21.31.1.07.25.12.43.14.18.02.42.03.72.03h.86v1.65h-1.43c-.48,0-.9-.03-1.24-.1-.34-.07-.62-.19-.84-.36-.21-.18-.37-.42-.47-.75-.1-.32-.15-.75-.15-1.28v-7.24h-1.94v-1.65h1.94v-3.41h1.87v3.41h2.27Z"/>
        <path class="cls-1" d="M88.55,70.29v-2.29h1.87v2.29h-1.87ZM90.42,72.33v11.37h-1.87v-11.37h1.87Z"/>
        <path class="cls-1" d="M99.68,83.71l-4.22-11.37h2.09l3.19,9.48h.04l3.1-9.48h1.96l-4.16,11.37h-2Z"/>
        <path class="cls-1" d="M118.84,82.98c-.85.65-1.92.97-3.21.97-.91,0-1.7-.15-2.37-.44-.67-.29-1.23-.7-1.68-1.23-.46-.53-.8-1.16-1.02-1.89s-.36-1.53-.38-2.4c0-.87.13-1.66.4-2.38s.63-1.34,1.11-1.87,1.04-.94,1.69-1.23c.65-.29,1.37-.44,2.15-.44,1.01,0,1.85.21,2.52.63.67.42,1.2.95,1.61,1.59.4.65.68,1.35.84,2.11.15.76.22,1.49.19,2.18h-8.51c-.01.5.04.97.18,1.42.13.45.34.84.64,1.19s.67.62,1.12.83c.45.21.99.31,1.61.31.79,0,1.44-.18,1.95-.55.51-.37.84-.92,1-1.67h1.85c-.25,1.28-.8,2.24-1.65,2.88ZM118.39,75.68c-.17-.4-.4-.74-.68-1.02-.29-.29-.62-.51-1.01-.68-.39-.17-.82-.25-1.29-.25s-.92.08-1.31.25c-.39.17-.72.4-1,.69-.28.29-.5.63-.66,1.02-.16.39-.26.8-.29,1.24h6.53c-.03-.44-.13-.86-.3-1.25Z"/>
        <path class="cls-1" d="M133.82,69.76v-1.76h12.56v1.76h-5.24v13.95h-2.09v-13.95h-5.24Z"/>
        <path class="cls-1" d="M158.68,83.66c-.32.19-.77.29-1.34.29-.48,0-.87-.14-1.16-.41-.29-.27-.43-.71-.43-1.33-.51.62-1.11,1.06-1.79,1.33-.68.27-1.42.41-2.21.41-.51,0-1-.06-1.46-.18-.46-.12-.86-.3-1.2-.55-.34-.25-.6-.58-.8-.98-.2-.4-.3-.89-.3-1.46,0-.65.11-1.17.33-1.58.22-.41.51-.74.87-1,.36-.26.77-.45,1.23-.58s.94-.24,1.42-.33c.51-.1,1-.18,1.46-.23.46-.05.87-.12,1.22-.22.35-.09.63-.23.84-.42.21-.18.31-.45.31-.8,0-.41-.08-.74-.23-.99-.15-.25-.35-.44-.59-.57-.24-.13-.51-.22-.81-.26-.3-.04-.6-.07-.89-.07-.79,0-1.45.15-1.98.45-.53.3-.81.87-.86,1.71h-1.87c.03-.7.18-1.3.44-1.78.26-.48.62-.88,1.06-1.18.44-.3.94-.52,1.51-.65s1.17-.2,1.81-.2c.51,0,1.02.04,1.53.11s.96.22,1.38.45c.41.23.74.55.99.96.25.41.37.94.37,1.6v5.84c0,.44.03.76.08.97s.22.31.52.31c.16,0,.35-.03.57-.09v1.45ZM155.65,77.83c-.24.18-.54.3-.92.38-.38.08-.78.15-1.2.2-.42.05-.84.11-1.27.18-.43.07-.81.17-1.14.32s-.61.35-.83.62c-.21.27-.32.64-.32,1.11,0,.31.06.57.19.78.12.21.29.38.48.51.2.13.43.23.69.28.26.06.54.09.84.09.62,0,1.14-.08,1.58-.25s.8-.38,1.08-.63c.28-.26.48-.53.62-.83s.2-.58.2-.84v-1.91Z"/>
        <path class="cls-1" d="M165.64,68v15.71h-1.87v-15.71h1.87Z"/>
        <path class="cls-1" d="M179.83,82.98c-.85.65-1.92.97-3.21.97-.91,0-1.7-.15-2.37-.44-.67-.29-1.23-.7-1.68-1.23-.46-.53-.8-1.16-1.02-1.89s-.36-1.53-.38-2.4c0-.87.13-1.66.4-2.38.26-.72.63-1.34,1.11-1.87s1.04-.94,1.69-1.23c.65-.29,1.37-.44,2.14-.44,1.01,0,1.85.21,2.52.63.67.42,1.2.95,1.61,1.59.4.65.68,1.35.84,2.11s.22,1.49.19,2.18h-8.51c-.01.5.04.97.18,1.42.13.45.34.84.64,1.19.29.34.67.62,1.12.83.45.21.99.31,1.61.31.79,0,1.44-.18,1.95-.55s.84-.92,1-1.67h1.85c-.25,1.28-.8,2.24-1.65,2.88ZM179.37,75.68c-.17-.4-.4-.74-.68-1.02-.29-.29-.62-.51-1.01-.68-.39-.17-.82-.25-1.29-.25s-.92.08-1.31.25c-.39.17-.72.4-1,.69-.28.29-.5.63-.66,1.02s-.26.8-.29,1.24h6.53c-.03-.44-.13-.86-.3-1.25Z"/>
        <path class="cls-1" d="M188.58,72.33v1.8h.04c.78-1.38,2.01-2.07,3.7-2.07.75,0,1.37.1,1.87.31.5.21.9.49,1.21.86.31.37.52.8.65,1.31.12.51.19,1.07.19,1.68v7.48h-1.87v-7.7c0-.7-.21-1.26-.62-1.67s-.98-.62-1.69-.62c-.57,0-1.07.09-1.49.26s-.77.43-1.04.75-.49.7-.63,1.13c-.14.43-.21.91-.21,1.42v6.42h-1.87v-11.37h1.76Z"/>
        <path class="cls-1" d="M207.15,72.33v1.65h-2.27v7.06c0,.22.02.4.06.53.04.13.11.23.21.31.1.07.25.12.43.14.18.02.42.03.71.03h.86v1.65h-1.43c-.48,0-.9-.03-1.24-.1-.34-.07-.62-.19-.84-.36-.21-.18-.37-.42-.47-.75-.1-.32-.15-.75-.15-1.28v-7.24h-1.94v-1.65h1.94v-3.41h1.87v3.41h2.27Z"/>
        <path class="cls-1" d="M229.97,70.14c-.7-.51-1.59-.76-2.67-.76-.44,0-.87.04-1.3.13-.42.09-.8.23-1.13.44-.33.21-.59.48-.79.83s-.3.77-.3,1.29c0,.48.14.88.43,1.18.29.3.67.55,1.14.74s1.02.35,1.62.47c.6.12,1.21.26,1.84.41.62.15,1.24.32,1.84.52.6.2,1.14.47,1.62.8.48.34.86.76,1.14,1.28.29.51.43,1.16.43,1.94,0,.84-.19,1.55-.56,2.14-.38.59-.86,1.08-1.44,1.45-.59.37-1.24.65-1.97.81-.73.17-1.45.25-2.17.25-.88,0-1.71-.11-2.5-.33-.78-.22-1.47-.55-2.07-1-.59-.45-1.06-1.02-1.41-1.72-.34-.7-.52-1.52-.52-2.48h1.98c0,.66.13,1.23.38,1.71s.59.87,1.01,1.18c.42.31.91.54,1.46.68.56.15,1.13.22,1.72.22.47,0,.94-.04,1.42-.13.48-.09.91-.24,1.29-.45.38-.21.69-.5.92-.87.23-.37.35-.84.35-1.41,0-.54-.14-.98-.43-1.32-.29-.34-.67-.61-1.14-.83s-1.02-.38-1.62-.52c-.6-.13-1.21-.27-1.84-.41-.62-.14-1.24-.3-1.84-.48s-1.14-.42-1.62-.73c-.48-.3-.86-.69-1.14-1.17s-.43-1.07-.43-1.79c0-.79.16-1.48.48-2.06.32-.58.75-1.06,1.29-1.43s1.14-.65,1.83-.84c.68-.18,1.38-.28,2.1-.28.81,0,1.55.1,2.24.29.69.19,1.29.49,1.81.9.52.41.93.93,1.23,1.55.3.62.46,1.37.49,2.23h-1.98c-.12-1.13-.52-1.95-1.22-2.45Z"/>
        <path class="cls-1" d="M247.34,82.98c-.85.65-1.92.97-3.21.97-.91,0-1.7-.15-2.37-.44-.67-.29-1.23-.7-1.68-1.23-.46-.53-.8-1.16-1.02-1.89s-.36-1.53-.38-2.4c0-.87.13-1.66.4-2.38.26-.72.63-1.34,1.11-1.87s1.04-.94,1.69-1.23c.65-.29,1.37-.44,2.14-.44,1.01,0,1.85.21,2.52.63.67.42,1.2.95,1.61,1.59.4.65.68,1.35.84,2.11.15.76.22,1.49.19,2.18h-8.51c-.02.5.04.97.18,1.42.13.45.34.84.64,1.19.29.34.67.62,1.12.83.45.21.99.31,1.61.31.79,0,1.44-.18,1.95-.55s.84-.92,1-1.67h1.85c-.25,1.28-.8,2.24-1.65,2.88ZM246.89,75.68c-.17-.4-.4-.74-.68-1.02s-.62-.51-1.01-.68c-.39-.17-.82-.25-1.29-.25s-.92.08-1.31.25c-.39.17-.72.4-1,.69-.28.29-.5.63-.66,1.02s-.26.8-.29,1.24h6.53c-.03-.44-.13-.86-.3-1.25Z"/>
        <path class="cls-1" d="M264.41,83.66c-.32.19-.77.29-1.34.29-.48,0-.87-.14-1.15-.41-.29-.27-.43-.71-.43-1.33-.51.62-1.11,1.06-1.79,1.33-.68.27-1.42.41-2.21.41-.51,0-1-.06-1.46-.18s-.86-.3-1.2-.55c-.34-.25-.6-.58-.8-.98s-.3-.89-.3-1.46c0-.65.11-1.17.33-1.58.22-.41.51-.74.87-1s.77-.45,1.23-.58.94-.24,1.42-.33c.51-.1,1-.18,1.46-.23.46-.05.87-.12,1.22-.22.35-.09.63-.23.84-.42.21-.18.31-.45.31-.8,0-.41-.08-.74-.23-.99-.15-.25-.35-.44-.59-.57-.24-.13-.51-.22-.81-.26s-.6-.07-.89-.07c-.79,0-1.45.15-1.98.45-.53.3-.81.87-.86,1.71h-1.87c.03-.7.18-1.3.44-1.78.26-.48.62-.88,1.06-1.18.44-.3.94-.52,1.51-.65.56-.13,1.17-.2,1.81-.2.51,0,1.02.04,1.53.11s.96.22,1.38.45c.41.23.74.55.99.96.25.41.37.94.37,1.6v5.84c0,.44.03.76.08.97.05.21.22.31.52.31.16,0,.35-.03.57-.09v1.45ZM261.38,77.83c-.24.18-.54.3-.92.38-.38.08-.78.15-1.2.2-.42.05-.84.11-1.27.18-.42.07-.81.17-1.14.32-.34.15-.61.35-.83.62-.21.27-.32.64-.32,1.11,0,.31.06.57.19.78.12.21.29.38.48.51.2.13.43.23.69.28.26.06.54.09.84.09.62,0,1.14-.08,1.58-.25.44-.17.8-.38,1.08-.63.28-.26.48-.53.62-.83s.2-.58.2-.84v-1.91Z"/>
        <path class="cls-1" d="M271.08,72.33v2.4h.04c.45-.92,1.01-1.61,1.67-2.05.66-.44,1.5-.65,2.51-.62v1.98c-.75,0-1.39.1-1.91.31s-.95.51-1.28.9c-.32.4-.56.88-.7,1.44s-.22,1.21-.22,1.95v5.06h-1.87v-11.37h1.76Z"/>
        <path class="cls-1" d="M286.35,74.31c-.47-.4-1.1-.59-1.89-.59-.67,0-1.24.12-1.69.37-.46.25-.82.58-1.09.99-.27.41-.47.88-.58,1.42-.12.54-.18,1.09-.18,1.66,0,.53.06,1.04.19,1.54.12.5.32.94.58,1.33s.61.7,1.03.94c.42.23.93.35,1.52.35.92,0,1.65-.24,2.17-.73.52-.48.84-1.17.96-2.05h1.91c-.21,1.41-.73,2.49-1.57,3.26-.84.76-1.99,1.14-3.44,1.14-.87,0-1.63-.14-2.3-.42-.67-.28-1.23-.67-1.67-1.19-.45-.51-.78-1.13-1.01-1.84-.23-.71-.34-1.49-.34-2.34s.11-1.65.33-2.39.55-1.39,1-1.94c.45-.55,1.01-.98,1.68-1.3.67-.31,1.46-.47,2.35-.47.65,0,1.25.08,1.81.23.56.15,1.06.39,1.5.72.43.32.79.73,1.07,1.22.28.49.45,1.07.53,1.75h-1.94c-.15-.72-.46-1.28-.92-1.67Z"/>
        <path class="cls-1" d="M296.47,68v6.01h.04c.15-.35.35-.65.62-.89.26-.24.56-.44.89-.59.33-.15.67-.27,1.03-.34s.71-.11,1.04-.11c.75,0,1.37.1,1.87.31.5.21.9.49,1.21.86.31.37.52.8.65,1.31.12.51.19,1.07.19,1.68v7.48h-1.87v-7.7c0-.7-.21-1.26-.62-1.67-.41-.41-.98-.62-1.69-.62-.57,0-1.07.09-1.48.26s-.77.43-1.04.75c-.28.32-.49.7-.63,1.13-.14.43-.21.91-.21,1.42v6.42h-1.87v-15.71h1.87Z"/>
      </g>
    </g>
  </g>
</svg>