<svg width="305" height="94" viewBox="0 0 305 94" fill="none" xmlns="http://www.w3.org/2000/svg">
<path d="M160.81 48.89V26.36L155.61 26.13V21.58H160.81V12.8L171.19 10.81V21.58H189.96V13.21L200.74 10.82V21.59H228.7V56.88L227.7 57.08H217.52V26.38H200.74V47.71C200.74 51.35 205.58 54.66 210.72 50.7L212.16 55.9C209.73 57.16 205.05 58.05 200.45 58.05C195.05 58.05 189.96 53.48 189.96 48.71V26.38H171.19V44.92C171.19 51.69 175.84 53.46 181.57 50.7L183.19 55.65C176.71 59.7 160.81 59.13 160.81 48.9" fill="#2D2D29"/>
<path d="M42.75 6.98997L42.78 10.98L15.08 50.28H50.57V22.47L61.36 20.48V57.06H0V53.2L28.21 14H4.48V7.21997L42.75 6.98997Z" fill="#2D2D29"/>
<path d="M70.78 22.37L81.42 20.18L81.36 24.76C85.7 21.44 88.53 20.48 95.5 20.48C103.19 20.48 107.53 25.93 107.53 33.24V57.06H97.18L97.14 36.17C97.14 30.4 94.82 27.12 89.75 27.12C85.65 27.12 81.16 30.4 81.16 35.95V57.05H70.78V22.37Z" fill="#2D2D29"/>
<path d="M268.25 22.78L265.47 28.58C240.58 19.49 242.28 60.08 266.06 49.5L268.65 55.46C263.75 57.48 259.04 58.38 253.69 57.85C245.46 57.03 237.69 50.92 236.71 42.5C234.57 24.03 253.09 16.44 268.26 22.78H268.25Z" fill="#2D2D29"/>
<path d="M274.28 25.42L277.64 30.34C282.07 26.03 292.04 24.07 294.22 31.54C284.26 34.17 269.67 35.97 271.49 49.65C271.87 52.5 274.83 56.17 277.56 57.14C284.4 59.58 289.1 56.23 294.21 52.28L293.82 57.06H303.61L304.61 56.86V32.14C304.61 18.23 281.88 17.84 274.29 25.41L274.28 25.42ZM291.41 48.49C287.08 53.75 280.46 51.54 281.92 44.2C282.82 39.68 290.32 37.49 294.2 36.73C294.37 40.5 293.89 45.48 291.41 48.49Z" fill="#2D2D29"/>
<path d="M116.86 46.11C121.37 59.21 140.78 61.28 150.67 53.45L147.2 48.8C138.25 53.04 127.09 52.65 126.86 40.31L151.34 40.26C151.34 28.47 146.22 20.57 134.26 20.57C124.68 20.57 115.47 26.99 115.47 39.3C115.47 41.42 116.03 43.69 116.87 46.11H116.86ZM140.99 34.73H126.86C126.86 23.53 140.99 23.25 140.99 34.73Z" fill="#2D2D29"/>
<path d="M55.62 17.29C59.0221 17.29 61.78 14.532 61.78 11.13C61.78 7.7279 59.0221 4.96997 55.62 4.96997C52.2179 4.96997 49.46 7.7279 49.46 11.13C49.46 14.532 52.2179 17.29 55.62 17.29Z" fill="#2D2D29"/>
<path d="M223.15 17.29C226.552 17.29 229.31 14.532 229.31 11.13C229.31 7.7279 226.552 4.96997 223.15 4.96997C219.748 4.96997 216.99 7.7279 216.99 11.13C216.99 14.532 219.748 17.29 223.15 17.29Z" fill="#2D2D29"/>
<path d="M12.56 72.97V74.73H3.81V79.72H11.97V81.48H3.81V86.91H12.63V88.67H1.72V72.96H12.57L12.56 72.97Z" fill="#2D2D29"/>
<path d="M17.18 77.3H19.58L22.31 81.28L25.15 77.3H27.39L23.47 82.54L27.87 88.68H25.47L22.3 83.97L19.13 88.68H16.86L21.13 82.7L17.17 77.31L17.18 77.3Z" fill="#2D2D29"/>
<path d="M40.77 87.95C39.92 88.6 38.85 88.92 37.56 88.92C36.65 88.92 35.86 88.77 35.19 88.48C34.52 88.19 33.96 87.78 33.51 87.25C33.05 86.72 32.71 86.09 32.49 85.36C32.27 84.63 32.13 83.83 32.11 82.96C32.11 82.09 32.24 81.3 32.51 80.58C32.78 79.86 33.14 79.24 33.62 78.71C34.1 78.18 34.66 77.77 35.31 77.48C35.96 77.19 36.68 77.04 37.46 77.04C38.47 77.04 39.31 77.25 39.98 77.67C40.65 78.09 41.18 78.62 41.59 79.26C41.99 79.91 42.27 80.61 42.43 81.37C42.58 82.13 42.65 82.86 42.62 83.55H34.11C34.1 84.05 34.15 84.52 34.29 84.97C34.42 85.42 34.63 85.81 34.93 86.16C35.23 86.51 35.6 86.78 36.05 86.99C36.5 87.2 37.04 87.3 37.66 87.3C38.45 87.3 39.1 87.12 39.61 86.75C40.12 86.38 40.45 85.83 40.61 85.08H42.46C42.21 86.36 41.66 87.32 40.81 87.96L40.77 87.95ZM40.31 80.65C40.14 80.25 39.91 79.91 39.63 79.63C39.34 79.34 39.01 79.12 38.62 78.95C38.23 78.78 37.8 78.7 37.33 78.7C36.86 78.7 36.41 78.78 36.02 78.95C35.63 79.12 35.3 79.35 35.02 79.64C34.74 79.93 34.52 80.27 34.36 80.66C34.2 81.05 34.1 81.46 34.07 81.9H40.6C40.57 81.46 40.47 81.04 40.3 80.65H40.31Z" fill="#2D2D29"/>
<path d="M54.56 79.28C54.09 78.88 53.46 78.69 52.67 78.69C52 78.69 51.43 78.81 50.98 79.06C50.52 79.31 50.16 79.64 49.89 80.05C49.62 80.46 49.42 80.93 49.31 81.47C49.19 82.01 49.13 82.56 49.13 83.13C49.13 83.66 49.19 84.17 49.32 84.67C49.44 85.17 49.64 85.61 49.9 86C50.16 86.39 50.51 86.7 50.93 86.94C51.35 87.17 51.86 87.29 52.45 87.29C53.37 87.29 54.1 87.05 54.62 86.56C55.14 86.08 55.46 85.39 55.58 84.51H57.49C57.28 85.92 56.76 87 55.92 87.77C55.08 88.53 53.93 88.91 52.48 88.91C51.61 88.91 50.85 88.77 50.18 88.49C49.51 88.21 48.96 87.82 48.51 87.3C48.06 86.79 47.73 86.17 47.5 85.46C47.27 84.75 47.16 83.97 47.16 83.12C47.16 82.27 47.27 81.47 47.49 80.73C47.71 79.99 48.04 79.34 48.49 78.79C48.94 78.24 49.5 77.81 50.17 77.49C50.84 77.18 51.63 77.02 52.52 77.02C53.17 77.02 53.77 77.1 54.33 77.25C54.89 77.4 55.39 77.64 55.83 77.97C56.26 78.29 56.62 78.7 56.9 79.19C57.18 79.68 57.35 80.26 57.43 80.94H55.49C55.34 80.22 55.04 79.66 54.57 79.27L54.56 79.28Z" fill="#2D2D29"/>
<path d="M70.47 86.88H70.43C70.03 87.58 69.53 88.1 68.91 88.43C68.29 88.76 67.57 88.93 66.73 88.93C65.98 88.93 65.36 88.83 64.86 88.63C64.36 88.43 63.96 88.15 63.65 87.78C63.34 87.41 63.13 86.98 63 86.47C62.88 85.96 62.81 85.4 62.81 84.79V77.31H64.68V85.01C64.68 85.71 64.89 86.27 65.3 86.68C65.71 87.09 66.28 87.3 66.99 87.3C67.56 87.3 68.06 87.21 68.48 87.04C68.9 86.86 69.25 86.61 69.52 86.29C69.8 85.97 70.01 85.59 70.15 85.16C70.29 84.73 70.36 84.25 70.36 83.74V77.32H72.23V88.69H70.47V86.88Z" fill="#2D2D29"/>
<path d="M83.14 77.3V78.95H80.87V86.01C80.87 86.23 80.89 86.41 80.93 86.54C80.97 86.67 81.04 86.77 81.14 86.85C81.24 86.92 81.39 86.97 81.57 86.99C81.75 87.01 81.99 87.02 82.29 87.02H83.15V88.67H81.72C81.24 88.67 80.82 88.64 80.48 88.57C80.14 88.5 79.86 88.38 79.64 88.21C79.43 88.03 79.27 87.79 79.17 87.46C79.07 87.14 79.02 86.71 79.02 86.18V78.94H77.08V77.29H79.02V73.88H80.89V77.29H83.16L83.14 77.3Z" fill="#2D2D29"/>
<path d="M88.55 75.26V72.97H90.42V75.26H88.55ZM90.42 77.3V88.67H88.55V77.3H90.42Z" fill="#2D2D29"/>
<path d="M99.68 88.68L95.46 77.31H97.55L100.74 86.79H100.78L103.88 77.31H105.84L101.68 88.68H99.68Z" fill="#2D2D29"/>
<path d="M118.84 87.95C117.99 88.6 116.92 88.92 115.63 88.92C114.72 88.92 113.93 88.77 113.26 88.48C112.59 88.19 112.03 87.78 111.58 87.25C111.12 86.72 110.78 86.09 110.56 85.36C110.34 84.63 110.2 83.83 110.18 82.96C110.18 82.09 110.31 81.3 110.58 80.58C110.85 79.86 111.21 79.24 111.69 78.71C112.17 78.18 112.73 77.77 113.38 77.48C114.03 77.19 114.75 77.04 115.53 77.04C116.54 77.04 117.38 77.25 118.05 77.67C118.72 78.09 119.25 78.62 119.66 79.26C120.06 79.91 120.34 80.61 120.5 81.37C120.65 82.13 120.72 82.86 120.69 83.55H112.18C112.17 84.05 112.22 84.52 112.36 84.97C112.49 85.42 112.7 85.81 113 86.16C113.3 86.51 113.67 86.78 114.12 86.99C114.57 87.2 115.11 87.3 115.73 87.3C116.52 87.3 117.17 87.12 117.68 86.75C118.19 86.38 118.52 85.83 118.68 85.08H120.53C120.28 86.36 119.73 87.32 118.88 87.96L118.84 87.95ZM118.39 80.65C118.22 80.25 117.99 79.91 117.71 79.63C117.42 79.34 117.09 79.12 116.7 78.95C116.31 78.78 115.88 78.7 115.41 78.7C114.94 78.7 114.49 78.78 114.1 78.95C113.71 79.12 113.38 79.35 113.1 79.64C112.82 79.93 112.6 80.27 112.44 80.66C112.28 81.05 112.18 81.46 112.15 81.9H118.68C118.65 81.46 118.55 81.04 118.38 80.65H118.39Z" fill="#2D2D29"/>
<path d="M133.82 74.73V72.97H146.38V74.73H141.14V88.68H139.05V74.73H133.81H133.82Z" fill="#2D2D29"/>
<path d="M158.68 88.63C158.36 88.82 157.91 88.92 157.34 88.92C156.86 88.92 156.47 88.78 156.18 88.51C155.89 88.24 155.75 87.8 155.75 87.18C155.24 87.8 154.64 88.24 153.96 88.51C153.28 88.78 152.54 88.92 151.75 88.92C151.24 88.92 150.75 88.86 150.29 88.74C149.83 88.62 149.43 88.44 149.09 88.19C148.75 87.94 148.49 87.61 148.29 87.21C148.09 86.81 147.99 86.32 147.99 85.75C147.99 85.1 148.1 84.58 148.32 84.17C148.54 83.76 148.83 83.43 149.19 83.17C149.55 82.91 149.96 82.72 150.42 82.59C150.88 82.46 151.36 82.35 151.84 82.26C152.35 82.16 152.84 82.08 153.3 82.03C153.76 81.98 154.17 81.91 154.52 81.81C154.87 81.72 155.15 81.58 155.36 81.39C155.57 81.21 155.67 80.94 155.67 80.59C155.67 80.18 155.59 79.85 155.44 79.6C155.29 79.35 155.09 79.16 154.85 79.03C154.61 78.9 154.34 78.81 154.04 78.77C153.74 78.73 153.44 78.7 153.15 78.7C152.36 78.7 151.7 78.85 151.17 79.15C150.64 79.45 150.36 80.02 150.31 80.86H148.44C148.47 80.16 148.62 79.56 148.88 79.08C149.14 78.6 149.5 78.2 149.94 77.9C150.38 77.6 150.88 77.38 151.45 77.25C152.02 77.12 152.62 77.05 153.26 77.05C153.77 77.05 154.28 77.09 154.79 77.16C155.3 77.23 155.75 77.38 156.17 77.61C156.58 77.84 156.91 78.16 157.16 78.57C157.41 78.98 157.53 79.51 157.53 80.17V86.01C157.53 86.45 157.56 86.77 157.61 86.98C157.66 87.19 157.83 87.29 158.13 87.29C158.29 87.29 158.48 87.26 158.7 87.2V88.65L158.68 88.63ZM155.65 82.8C155.41 82.98 155.11 83.1 154.73 83.18C154.35 83.26 153.95 83.33 153.53 83.38C153.11 83.43 152.69 83.49 152.26 83.56C151.83 83.63 151.45 83.73 151.12 83.88C150.79 84.03 150.51 84.23 150.29 84.5C150.08 84.77 149.97 85.14 149.97 85.61C149.97 85.92 150.03 86.18 150.16 86.39C150.28 86.6 150.45 86.77 150.64 86.9C150.84 87.03 151.07 87.13 151.33 87.18C151.59 87.24 151.87 87.27 152.17 87.27C152.79 87.27 153.31 87.19 153.75 87.02C154.19 86.85 154.55 86.64 154.83 86.39C155.11 86.13 155.31 85.86 155.45 85.56C155.59 85.26 155.65 84.98 155.65 84.72V82.8Z" fill="#2D2D29"/>
<path d="M165.64 72.97V88.68H163.77V72.97H165.64Z" fill="#2D2D29"/>
<path d="M179.83 87.95C178.98 88.6 177.91 88.92 176.62 88.92C175.71 88.92 174.92 88.77 174.25 88.48C173.58 88.19 173.02 87.78 172.57 87.25C172.11 86.72 171.77 86.09 171.55 85.36C171.33 84.63 171.19 83.83 171.17 82.96C171.17 82.09 171.3 81.3 171.57 80.58C171.83 79.86 172.2 79.24 172.68 78.71C173.16 78.18 173.72 77.77 174.37 77.48C175.02 77.19 175.74 77.04 176.51 77.04C177.52 77.04 178.36 77.25 179.03 77.67C179.7 78.09 180.23 78.62 180.64 79.26C181.04 79.91 181.32 80.61 181.48 81.37C181.64 82.13 181.7 82.86 181.67 83.55H173.16C173.15 84.05 173.2 84.52 173.34 84.97C173.47 85.42 173.68 85.81 173.98 86.16C174.27 86.5 174.65 86.78 175.1 86.99C175.55 87.2 176.09 87.3 176.71 87.3C177.5 87.3 178.15 87.12 178.66 86.75C179.17 86.38 179.5 85.83 179.66 85.08H181.51C181.26 86.36 180.71 87.32 179.86 87.96L179.83 87.95ZM179.37 80.65C179.2 80.25 178.97 79.91 178.69 79.63C178.4 79.34 178.07 79.12 177.68 78.95C177.29 78.78 176.86 78.7 176.39 78.7C175.92 78.7 175.47 78.78 175.08 78.95C174.69 79.12 174.36 79.35 174.08 79.64C173.8 79.93 173.58 80.27 173.42 80.66C173.26 81.05 173.16 81.46 173.13 81.9H179.66C179.63 81.46 179.53 81.04 179.36 80.65H179.37Z" fill="#2D2D29"/>
<path d="M188.58 79.1H188.62C189.4 77.72 190.63 77.03 192.32 77.03C193.07 77.03 193.69 77.13 194.19 77.34C194.69 77.55 195.09 77.83 195.4 78.2C195.71 78.57 195.92 79 196.05 79.51C196.17 80.02 196.24 80.58 196.24 81.19V88.67H194.37V80.97C194.37 80.27 194.16 79.71 193.75 79.3C193.34 78.89 192.77 78.68 192.06 78.68C191.49 78.68 190.99 78.77 190.57 78.94C190.15 79.11 189.8 79.37 189.53 79.69C189.26 80.01 189.04 80.39 188.9 80.82C188.76 81.25 188.69 81.73 188.69 82.24V88.66H186.82V77.29H188.58V79.1Z" fill="#2D2D29"/>
<path d="M207.15 77.3V78.95H204.88V86.01C204.88 86.23 204.9 86.41 204.94 86.54C204.98 86.67 205.05 86.77 205.15 86.85C205.25 86.92 205.4 86.97 205.58 86.99C205.76 87.01 206 87.02 206.29 87.02H207.15V88.67H205.72C205.24 88.67 204.82 88.64 204.48 88.57C204.14 88.5 203.86 88.38 203.64 88.21C203.43 88.03 203.27 87.79 203.17 87.46C203.07 87.14 203.02 86.71 203.02 86.18V78.94H201.08V77.29H203.02V73.88H204.89V77.29H207.16L207.15 77.3Z" fill="#2D2D29"/>
<path d="M229.97 75.11C229.27 74.6 228.38 74.35 227.3 74.35C226.86 74.35 226.43 74.39 226 74.48C225.58 74.57 225.2 74.71 224.87 74.92C224.54 75.13 224.28 75.4 224.08 75.75C223.88 76.1 223.78 76.52 223.78 77.04C223.78 77.52 223.92 77.92 224.21 78.22C224.5 78.52 224.88 78.77 225.35 78.96C225.82 79.15 226.37 79.31 226.97 79.43C227.57 79.55 228.18 79.69 228.81 79.84C229.43 79.99 230.05 80.16 230.65 80.36C231.25 80.56 231.79 80.83 232.27 81.16C232.75 81.5 233.13 81.92 233.41 82.44C233.7 82.95 233.84 83.6 233.84 84.38C233.84 85.22 233.65 85.93 233.28 86.52C232.9 87.11 232.42 87.6 231.84 87.97C231.25 88.34 230.6 88.62 229.87 88.78C229.14 88.95 228.42 89.03 227.7 89.03C226.82 89.03 225.99 88.92 225.2 88.7C224.42 88.48 223.73 88.15 223.13 87.7C222.54 87.25 222.07 86.68 221.72 85.98C221.38 85.28 221.2 84.46 221.2 83.5H223.18C223.18 84.16 223.31 84.73 223.56 85.21C223.81 85.69 224.15 86.08 224.57 86.39C224.99 86.7 225.48 86.93 226.03 87.07C226.59 87.22 227.16 87.29 227.75 87.29C228.22 87.29 228.69 87.25 229.17 87.16C229.65 87.07 230.08 86.92 230.46 86.71C230.84 86.5 231.15 86.21 231.38 85.84C231.61 85.47 231.73 85 231.73 84.43C231.73 83.89 231.59 83.45 231.3 83.11C231.01 82.77 230.63 82.5 230.16 82.28C229.69 82.06 229.14 81.9 228.54 81.76C227.94 81.63 227.33 81.49 226.7 81.35C226.08 81.21 225.46 81.05 224.86 80.87C224.26 80.69 223.72 80.45 223.24 80.14C222.76 79.84 222.38 79.45 222.1 78.97C221.82 78.49 221.67 77.9 221.67 77.18C221.67 76.39 221.83 75.7 222.15 75.12C222.47 74.54 222.9 74.06 223.44 73.69C223.98 73.32 224.58 73.04 225.27 72.85C225.95 72.67 226.65 72.57 227.37 72.57C228.18 72.57 228.92 72.67 229.61 72.86C230.3 73.05 230.9 73.35 231.42 73.76C231.94 74.17 232.35 74.69 232.65 75.31C232.95 75.93 233.11 76.68 233.14 77.54H231.16C231.04 76.41 230.64 75.59 229.94 75.09L229.97 75.11Z" fill="#2D2D29"/>
<path d="M247.34 87.95C246.49 88.6 245.42 88.92 244.13 88.92C243.22 88.92 242.43 88.77 241.76 88.48C241.09 88.19 240.53 87.78 240.08 87.25C239.62 86.72 239.28 86.09 239.06 85.36C238.84 84.63 238.7 83.83 238.68 82.96C238.68 82.09 238.81 81.3 239.08 80.58C239.34 79.86 239.71 79.24 240.19 78.71C240.67 78.18 241.23 77.77 241.88 77.48C242.53 77.19 243.25 77.04 244.02 77.04C245.03 77.04 245.87 77.25 246.54 77.67C247.21 78.09 247.74 78.62 248.15 79.26C248.55 79.91 248.83 80.61 248.99 81.37C249.14 82.13 249.21 82.86 249.18 83.55H240.67C240.65 84.05 240.71 84.52 240.85 84.97C240.98 85.42 241.19 85.81 241.49 86.16C241.78 86.5 242.16 86.78 242.61 86.99C243.06 87.2 243.6 87.3 244.22 87.3C245.01 87.3 245.66 87.12 246.17 86.75C246.68 86.38 247.01 85.83 247.17 85.08H249.02C248.77 86.36 248.22 87.32 247.37 87.96L247.34 87.95ZM246.89 80.65C246.72 80.25 246.49 79.91 246.21 79.63C245.93 79.35 245.59 79.12 245.2 78.95C244.81 78.78 244.38 78.7 243.91 78.7C243.44 78.7 242.99 78.78 242.6 78.95C242.21 79.12 241.88 79.35 241.6 79.64C241.32 79.93 241.1 80.27 240.94 80.66C240.78 81.05 240.68 81.46 240.65 81.9H247.18C247.15 81.46 247.05 81.04 246.88 80.65H246.89Z" fill="#2D2D29"/>
<path d="M264.41 88.63C264.09 88.82 263.64 88.92 263.07 88.92C262.59 88.92 262.2 88.78 261.92 88.51C261.63 88.24 261.49 87.8 261.49 87.18C260.98 87.8 260.38 88.24 259.7 88.51C259.02 88.78 258.28 88.92 257.49 88.92C256.98 88.92 256.49 88.86 256.03 88.74C255.57 88.62 255.17 88.44 254.83 88.19C254.49 87.94 254.23 87.61 254.03 87.21C253.83 86.81 253.73 86.32 253.73 85.75C253.73 85.1 253.84 84.58 254.06 84.17C254.28 83.76 254.57 83.43 254.93 83.17C255.29 82.91 255.7 82.72 256.16 82.59C256.62 82.46 257.1 82.35 257.58 82.26C258.09 82.16 258.58 82.08 259.04 82.03C259.5 81.98 259.91 81.91 260.26 81.81C260.61 81.72 260.89 81.58 261.1 81.39C261.31 81.21 261.41 80.94 261.41 80.59C261.41 80.18 261.33 79.85 261.18 79.6C261.03 79.35 260.83 79.16 260.59 79.03C260.35 78.9 260.08 78.81 259.78 78.77C259.48 78.73 259.18 78.7 258.89 78.7C258.1 78.7 257.44 78.85 256.91 79.15C256.38 79.45 256.1 80.02 256.05 80.86H254.18C254.21 80.16 254.36 79.56 254.62 79.08C254.88 78.6 255.24 78.2 255.68 77.9C256.12 77.6 256.62 77.38 257.19 77.25C257.75 77.12 258.36 77.05 259 77.05C259.51 77.05 260.02 77.09 260.53 77.16C261.04 77.23 261.49 77.38 261.91 77.61C262.32 77.84 262.65 78.16 262.9 78.57C263.15 78.98 263.27 79.51 263.27 80.17V86.01C263.27 86.45 263.3 86.77 263.35 86.98C263.4 87.19 263.57 87.29 263.87 87.29C264.03 87.29 264.22 87.26 264.44 87.2V88.65L264.41 88.63ZM261.38 82.8C261.14 82.98 260.84 83.1 260.46 83.18C260.08 83.26 259.68 83.33 259.26 83.38C258.84 83.43 258.42 83.49 257.99 83.56C257.57 83.63 257.18 83.73 256.85 83.88C256.51 84.03 256.24 84.23 256.02 84.5C255.81 84.77 255.7 85.14 255.7 85.61C255.7 85.92 255.76 86.18 255.89 86.39C256.01 86.6 256.18 86.77 256.37 86.9C256.57 87.03 256.8 87.13 257.06 87.18C257.32 87.24 257.6 87.27 257.9 87.27C258.52 87.27 259.04 87.19 259.48 87.02C259.92 86.85 260.28 86.64 260.56 86.39C260.84 86.13 261.04 85.86 261.18 85.56C261.32 85.26 261.38 84.98 261.38 84.72V82.8Z" fill="#2D2D29"/>
<path d="M271.08 77.3V79.7H271.12C271.57 78.78 272.13 78.09 272.79 77.65C273.45 77.21 274.29 77 275.3 77.03V79.01C274.55 79.01 273.91 79.11 273.39 79.32C272.87 79.53 272.44 79.83 272.11 80.22C271.79 80.62 271.55 81.1 271.41 81.66C271.27 82.22 271.19 82.87 271.19 83.61V88.67H269.32V77.3H271.08Z" fill="#2D2D29"/>
<path d="M286.35 79.28C285.88 78.88 285.25 78.69 284.46 78.69C283.79 78.69 283.22 78.81 282.77 79.06C282.31 79.31 281.95 79.64 281.68 80.05C281.41 80.46 281.21 80.93 281.1 81.47C280.98 82.01 280.92 82.56 280.92 83.13C280.92 83.66 280.98 84.17 281.11 84.67C281.23 85.17 281.43 85.61 281.69 86C281.95 86.39 282.3 86.7 282.72 86.94C283.14 87.17 283.65 87.29 284.24 87.29C285.16 87.29 285.89 87.05 286.41 86.56C286.93 86.08 287.25 85.39 287.37 84.51H289.28C289.07 85.92 288.55 87 287.71 87.77C286.87 88.53 285.72 88.91 284.27 88.91C283.4 88.91 282.64 88.77 281.97 88.49C281.3 88.21 280.74 87.82 280.3 87.3C279.85 86.79 279.52 86.17 279.29 85.46C279.06 84.75 278.95 83.97 278.95 83.12C278.95 82.27 279.06 81.47 279.28 80.73C279.5 79.99 279.83 79.34 280.28 78.79C280.73 78.24 281.29 77.81 281.96 77.49C282.63 77.18 283.42 77.02 284.31 77.02C284.96 77.02 285.56 77.1 286.12 77.25C286.68 77.4 287.18 77.64 287.62 77.97C288.05 78.29 288.41 78.7 288.69 79.19C288.97 79.68 289.14 80.26 289.22 80.94H287.28C287.13 80.22 286.82 79.66 286.36 79.27L286.35 79.28Z" fill="#2D2D29"/>
<path d="M296.47 72.97V78.98H296.51C296.66 78.63 296.86 78.33 297.13 78.09C297.39 77.85 297.69 77.65 298.02 77.5C298.35 77.35 298.69 77.23 299.05 77.16C299.41 77.09 299.76 77.05 300.09 77.05C300.84 77.05 301.46 77.15 301.96 77.36C302.46 77.57 302.86 77.85 303.17 78.22C303.48 78.59 303.69 79.02 303.82 79.53C303.94 80.04 304.01 80.6 304.01 81.21V88.69H302.14V80.99C302.14 80.29 301.93 79.73 301.52 79.32C301.11 78.91 300.54 78.7 299.83 78.7C299.26 78.7 298.76 78.79 298.35 78.96C297.94 79.13 297.58 79.39 297.31 79.71C297.03 80.03 296.82 80.41 296.68 80.84C296.54 81.27 296.47 81.75 296.47 82.26V88.68H294.6V72.97H296.47Z" fill="#2D2D29"/>
</svg>
