<?xml version="1.0" encoding="UTF-8"?>
<svg id="Capa_2" xmlns="http://www.w3.org/2000/svg" version="1.1" viewBox="0 0 175 48">
  <!-- Generator: Adobe Illustrator 29.3.1, SVG Export Plug-In . SVG Version: 2.1.0 Build 151)  -->
  <defs>
    <style>
      .st0 {
        fill: #1d1d1b;
      }
    </style>
  </defs>
  <g id="Capa_2-2">
    <g>
      <path d="M92.4,25.2v-12.9h-3v-2.7h3v-5l6-1.1v6.2h10.8v-4.8l6.2-1.4v6.2h16.1v20.3h-.6c0,.1-5.8.1-5.8.1V12.3h-9.6v12.3c0,2.1,2.8,4,5.7,1.7l.8,3c-1.4.7-4.1,1.2-6.7,1.2s-6-2.6-6-5.4v-12.8h-10.8v10.7c0,3.9,2.7,4.9,6,3.3l.9,2.8c-3.7,2.3-12.9,2-12.9-3.9"/>
      <polygon points="24.6 1.2 24.6 3.5 8.7 26 29.1 26 29.1 10.1 35.3 8.9 35.3 29.9 0 29.9 0 27.7 16.2 5.2 2.6 5.2 2.6 1.3 24.6 1.2"/>
      <path d="M40.7,10l6.1-1.3v2.6c2.5-1.9,4.1-2.5,8.1-2.5s6.9,3.1,6.9,7.3v13.7h-5.9v-12c0-3.3-1.4-5.2-4.3-5.2s-4.9,1.9-4.9,5.1v12.1h-6s0-19.9,0-19.9Z"/>
      <path d="M154.1,10.2l-1.6,3.3c-14.3-5.2-13.3,18.1.3,12l1.5,3.4c-2.8,1.2-5.5,1.7-8.6,1.4-4.7-.5-9.2-4-9.8-8.8-1.2-10.6,9.4-15,18.1-11.3h0Z"/>
      <path d="M157.6,11.7l1.9,2.8c2.5-2.5,8.3-3.6,9.5.7-5.7,1.5-14.1,2.5-13.1,10.4.2,1.6,1.9,3.7,3.5,4.3,3.9,1.4,6.6-.5,9.6-2.8l-.2,2.7h6.2v-14.3c0-8-13.1-8.2-17.4-3.9h0ZM167.4,25c-2.5,3-6.3,1.8-5.5-2.5.5-2.6,4.8-3.9,7.1-4.3,0,2.2-.2,5-1.6,6.8Z"/>
      <path d="M67.1,23.6c2.6,7.5,13.7,8.7,19.4,4.2l-2-2.7c-5.1,2.4-11.6,2.2-11.7-4.9h14.1c0-6.8-2.9-11.3-9.8-11.3s-10.8,3.7-10.8,10.8.3,2.5.8,3.9h0ZM81,17.1h-8.1c0-6.4,8.1-6.6,8.1,0Z"/>
      <circle cx="32" cy="3.5" r="3.5"/>
      <circle cx="128.2" cy="3.5" r="3.5"/>
      <g>
        <path class="st0" d="M6.3,38.7v1H1.2v2.9h4.7v1H1.2v3.1h5.1v1H0v-9.1h6.3,0Z"/>
        <path class="st0" d="M9,41.2h1.4l1.6,2.3,1.6-2.3h1.3l-2.3,3,2.5,3.6h-1.4l-1.8-2.7-1.8,2.7h-1.3l2.5-3.5-2.3-3.1h0Z"/>
        <path class="st0" d="M22.6,47.4c-.5.4-1.1.6-1.9.6s-1,0-1.4-.3-.7-.4-1-.7c-.3-.3-.5-.7-.6-1.1s-.2-.9-.2-1.4c0-.5,0-1,.2-1.4s.4-.8.6-1.1.6-.5,1-.7c.4-.2.8-.3,1.2-.3s1.1.1,1.5.4c.4.2.7.5.9.9.2.4.4.8.5,1.2,0,.4.1.9.1,1.3h-4.9c0,.3,0,.6.1.8,0,.3.2.5.4.7s.4.4.6.5.6.2.9.2.8-.1,1.1-.3c.3-.2.5-.5.6-1h1.1c-.1.7-.5,1.3-1,1.7h0ZM22.3,43.2c0-.2-.2-.4-.4-.6s-.4-.3-.6-.4-.5-.1-.7-.1-.5,0-.8.1c-.2,0-.4.2-.6.4s-.3.4-.4.6-.2.5-.2.7h3.8c0-.3,0-.5-.2-.7h0Z"/>
        <path class="st0" d="M30.6,42.4c-.3-.2-.6-.3-1.1-.3s-.7,0-1,.2c-.3.1-.5.3-.6.6-.2.2-.3.5-.3.8,0,.3-.1.6-.1,1s0,.6.1.9c0,.3.2.5.3.8s.4.4.6.5c.2.1.5.2.9.2.5,0,1-.1,1.3-.4.3-.3.5-.7.6-1.2h1.1c-.1.8-.4,1.4-.9,1.9-.5.4-1.2.7-2,.7s-.9,0-1.3-.2-.7-.4-1-.7c-.3-.3-.5-.7-.6-1.1s-.2-.9-.2-1.4,0-1,.2-1.4.3-.8.6-1.1.6-.6,1-.8c.4-.2.8-.3,1.4-.3s.7,0,1,.1.6.2.9.4c.2.2.5.4.6.7s.3.6.3,1h-1.1c0-.4-.3-.7-.5-1h0Z"/>
        <path class="st0" d="M39.8,47.8v-1h0c-.2.4-.5.7-.9.9-.4.2-.8.3-1.3.3s-.8,0-1.1-.2c-.3-.1-.5-.3-.7-.5-.2-.2-.3-.5-.4-.8,0-.3-.1-.6-.1-1v-4.3h1.1v4.5c0,.4.1.7.4,1,.2.2.6.4,1,.4s.6,0,.9-.2c.2-.1.4-.2.6-.4.2-.2.3-.4.4-.7s.1-.5.1-.8v-3.7h1.1v6.6h-1Z"/>
        <path class="st0" d="M47.1,41.2v1h-1.3v4.1c0,.1,0,.2,0,.3s0,.1.1.2c0,0,.1,0,.2,0s.2,0,.4,0h.5v1h-.8c-.3,0-.5,0-.7,0s-.4-.1-.5-.2c-.1-.1-.2-.2-.3-.4,0-.2,0-.4,0-.7v-4.2h-1.1v-1h1.1v-2h1.1v2h1.3,0Z"/>
        <path class="st0" d="M50.3,40v-1.3h1.1v1.3h-1.1ZM51.3,41.2v6.6h-1.1v-6.6h1.1Z"/>
        <path class="st0" d="M56.7,47.8l-2.4-6.6h1.2l1.8,5.5h0l1.8-5.5h1.1l-2.4,6.6s-1.2,0-1.2,0Z"/>
        <path class="st0" d="M67.8,47.4c-.5.4-1.1.6-1.9.6s-1,0-1.4-.3c-.4-.2-.7-.4-1-.7-.3-.3-.5-.7-.6-1.1s-.2-.9-.2-1.4c0-.5,0-1,.2-1.4s.4-.8.6-1.1.6-.5,1-.7.8-.3,1.2-.3,1.1.1,1.5.4.7.5.9.9c.2.4.4.8.5,1.2,0,.4.1.9.1,1.3h-4.9c0,.3,0,.6.1.8,0,.3.2.5.4.7s.4.4.6.5c.3.1.6.2.9.2s.8-.1,1.1-.3c.3-.2.5-.5.6-1h1.1c-.1.7-.5,1.3-1,1.7h0ZM67.5,43.2c0-.2-.2-.4-.4-.6s-.4-.3-.6-.4-.5-.1-.7-.1-.5,0-.8.1-.4.2-.6.4-.3.4-.4.6-.2.5-.2.7h3.8c0-.3,0-.5-.2-.7h0Z"/>
        <path class="st0" d="M76.5,39.7v-1h7.3v1h-3v8.1h-1.2v-8.1h-3,0Z"/>
        <path class="st0" d="M90.9,47.8c-.2.1-.4.2-.8.2s-.5,0-.7-.2c-.2-.2-.2-.4-.2-.8-.3.4-.6.6-1,.8-.4.2-.8.2-1.3.2s-.6,0-.8-.1-.5-.2-.7-.3-.3-.3-.5-.6-.2-.5-.2-.8,0-.7.2-.9.3-.4.5-.6.4-.3.7-.3.5-.1.8-.2c.3,0,.6-.1.8-.1s.5,0,.7-.1c.2,0,.4-.1.5-.2.1-.1.2-.3.2-.5s0-.4-.1-.6-.2-.3-.3-.3c-.1,0-.3-.1-.5-.2s-.3,0-.5,0c-.5,0-.8,0-1.1.3-.3.2-.5.5-.5,1h-1.1c0-.4.1-.8.3-1,.2-.3.4-.5.6-.7s.5-.3.9-.4.7-.1,1-.1.6,0,.9,0,.6.1.8.3c.2.1.4.3.6.6.1.2.2.5.2.9v3.4c0,.3,0,.4,0,.6s.1.2.3.2.2,0,.3,0v.8h0ZM89.1,44.4c-.1.1-.3.2-.5.2-.2,0-.5,0-.7.1-.2,0-.5,0-.7.1-.2,0-.5,0-.7.2s-.4.2-.5.4c-.1.2-.2.4-.2.6s0,.3.1.5c0,.1.2.2.3.3.1,0,.2.1.4.2.2,0,.3,0,.5,0,.4,0,.7,0,.9-.1s.5-.2.6-.4c.2-.2.3-.3.4-.5s.1-.3.1-.5v-1.1h0Z"/>
        <path class="st0" d="M94.9,38.7v9.1h-1.1v-9.1h1.1Z"/>
        <path class="st0" d="M103.1,47.4c-.5.4-1.1.6-1.9.6s-1,0-1.4-.3-.7-.4-1-.7c-.3-.3-.5-.7-.6-1.1s-.2-.9-.2-1.4c0-.5,0-1,.2-1.4.2-.4.4-.8.6-1.1s.6-.5,1-.7c.4-.2.8-.3,1.2-.3s1.1.1,1.5.4.7.5.9.9c.2.4.4.8.5,1.2s.1.9.1,1.3h-4.9c0,.3,0,.6.1.8,0,.3.2.5.4.7.2.2.4.4.6.5s.6.2.9.2.8-.1,1.1-.3.5-.5.6-1h1.1c-.1.7-.5,1.3-1,1.7h0ZM102.8,43.2c0-.2-.2-.4-.4-.6-.2-.2-.4-.3-.6-.4s-.5-.1-.7-.1-.5,0-.8.1-.4.2-.6.4-.3.4-.4.6-.2.5-.2.7h3.8c0-.3,0-.5-.2-.7h0Z"/>
        <path class="st0" d="M108.2,41.2v1h0c.5-.8,1.2-1.2,2.1-1.2s.8,0,1.1.2.5.3.7.5c.2.2.3.5.4.8,0,.3.1.6.1,1v4.3h-1.1v-4.5c0-.4-.1-.7-.4-1s-.6-.4-1-.4-.6,0-.9.2-.4.2-.6.4-.3.4-.4.7-.1.5-.1.8v3.7h-1.1v-6.6h1Z"/>
        <path class="st0" d="M118.9,41.2v1h-1.3v4.1c0,.1,0,.2,0,.3s0,.1.1.2c0,0,.1,0,.2,0s.2,0,.4,0h.5v1h-.8c-.3,0-.5,0-.7,0-.2,0-.4-.1-.5-.2-.1-.1-.2-.2-.3-.4,0-.2,0-.4,0-.7v-4.2h-1.1v-1h1.1v-2h1.1v2h1.3,0Z"/>
        <path class="st0" d="M132.1,39.9c-.4-.3-.9-.4-1.5-.4s-.5,0-.8,0c-.2,0-.5.1-.7.3s-.3.3-.5.5-.2.4-.2.7,0,.5.2.7.4.3.7.4.6.2.9.3c.3,0,.7.2,1.1.2.4,0,.7.2,1.1.3.3.1.7.3.9.5.3.2.5.4.7.7.2.3.2.7.2,1.1s-.1.9-.3,1.2c-.2.3-.5.6-.8.8-.3.2-.7.4-1.1.5-.4,0-.8.1-1.3.1s-1,0-1.4-.2c-.5-.1-.9-.3-1.2-.6-.3-.3-.6-.6-.8-1-.2-.4-.3-.9-.3-1.4h1.1c0,.4,0,.7.2,1s.3.5.6.7.5.3.8.4c.3,0,.7.1,1,.1s.5,0,.8,0,.5-.1.7-.3c.2-.1.4-.3.5-.5s.2-.5.2-.8,0-.6-.2-.8-.4-.4-.7-.5-.6-.2-.9-.3c-.3,0-.7-.2-1.1-.2-.4,0-.7-.2-1.1-.3s-.7-.2-.9-.4c-.3-.2-.5-.4-.7-.7s-.2-.6-.2-1,0-.9.3-1.2c.2-.3.4-.6.7-.8s.7-.4,1.1-.5c.4-.1.8-.2,1.2-.2s.9,0,1.3.2.7.3,1,.5.5.5.7.9.3.8.3,1.3h-1.1c0-.7-.3-1.1-.7-1.4h0Z"/>
        <path class="st0" d="M142.2,47.4c-.5.4-1.1.6-1.9.6s-1,0-1.4-.3-.7-.4-1-.7c-.3-.3-.5-.7-.6-1.1s-.2-.9-.2-1.4c0-.5,0-1,.2-1.4.2-.4.4-.8.6-1.1s.6-.5,1-.7c.4-.2.8-.3,1.2-.3s1.1.1,1.5.4.7.5.9.9c.2.4.4.8.5,1.2,0,.4.1.9.1,1.3h-4.9c0,.3,0,.6.1.8,0,.3.2.5.4.7.2.2.4.4.6.5s.6.2.9.2.8-.1,1.1-.3.5-.5.6-1h1.1c-.1.7-.5,1.3-1,1.7h0ZM141.9,43.2c0-.2-.2-.4-.4-.6s-.4-.3-.6-.4-.5-.1-.7-.1-.5,0-.8.1-.4.2-.6.4-.3.4-.4.6-.2.5-.2.7h3.8c0-.3,0-.5-.2-.7h0Z"/>
        <path class="st0" d="M152.1,47.8c-.2.1-.4.2-.8.2s-.5,0-.7-.2c-.2-.2-.2-.4-.2-.8-.3.4-.6.6-1,.8-.4.2-.8.2-1.3.2s-.6,0-.8-.1-.5-.2-.7-.3-.3-.3-.5-.6-.2-.5-.2-.8,0-.7.2-.9.3-.4.5-.6.4-.3.7-.3c.3,0,.5-.1.8-.2.3,0,.6-.1.8-.1s.5,0,.7-.1c.2,0,.4-.1.5-.2.1-.1.2-.3.2-.5s0-.4-.1-.6c0-.1-.2-.3-.3-.3s-.3-.1-.5-.2-.3,0-.5,0c-.5,0-.8,0-1.1.3-.3.2-.5.5-.5,1h-1.1c0-.4.1-.8.3-1,.2-.3.4-.5.6-.7s.5-.3.9-.4c.3,0,.7-.1,1-.1s.6,0,.9,0,.6.1.8.3c.2.1.4.3.6.6.1.2.2.5.2.9v3.4c0,.3,0,.4,0,.6s.1.2.3.2.2,0,.3,0v.8h0ZM150.3,44.4c-.1.1-.3.2-.5.2-.2,0-.5,0-.7.1-.2,0-.5,0-.7.1-.2,0-.5,0-.7.2-.2,0-.4.2-.5.4-.1.2-.2.4-.2.6s0,.3.1.5c0,.1.2.2.3.3.1,0,.2.1.4.2.2,0,.3,0,.5,0,.4,0,.7,0,.9-.1.3,0,.5-.2.6-.4.2-.2.3-.3.4-.5s.1-.3.1-.5v-1.1h0Z"/>
        <path class="st0" d="M155.9,41.2v1.4h0c.3-.5.6-.9,1-1.2s.9-.4,1.5-.4v1.1c-.4,0-.8,0-1.1.2s-.5.3-.7.5c-.2.2-.3.5-.4.8s-.1.7-.1,1.1v2.9h-1.1v-6.6h1,0Z"/>
        <path class="st0" d="M164.8,42.4c-.3-.2-.6-.3-1.1-.3s-.7,0-1,.2c-.3.1-.5.3-.6.6-.2.2-.3.5-.3.8,0,.3-.1.6-.1,1s0,.6.1.9c0,.3.2.5.3.8s.4.4.6.5c.2.1.5.2.9.2.5,0,1-.1,1.3-.4.3-.3.5-.7.6-1.2h1.1c-.1.8-.4,1.4-.9,1.9-.5.4-1.2.7-2,.7s-.9,0-1.3-.2c-.4-.2-.7-.4-1-.7-.3-.3-.5-.7-.6-1.1s-.2-.9-.2-1.4,0-1,.2-1.4.3-.8.6-1.1.6-.6,1-.8c.4-.2.8-.3,1.4-.3s.7,0,1,.1.6.2.9.4c.2.2.5.4.6.7s.3.6.3,1h-1.1c0-.4-.3-.7-.5-1h0Z"/>
        <path class="st0" d="M170.6,38.7v3.5h0c0-.2.2-.4.4-.5.2-.1.3-.3.5-.3.2,0,.4-.2.6-.2s.4,0,.6,0c.4,0,.8,0,1.1.2s.5.3.7.5.3.5.4.8c0,.3.1.6.1,1v4.3h-1.1v-4.5c0-.4-.1-.7-.4-1-.2-.2-.6-.4-1-.4s-.6,0-.9.2-.4.2-.6.4c-.2.2-.3.4-.4.7s-.1.5-.1.8v3.7h-1.1v-9.1s1.1,0,1.1,0Z"/>
      </g>
    </g>
  </g>
</svg>