<svg width="176" height="54" viewBox="0 0 176 54" fill="none" xmlns="http://www.w3.org/2000/svg">
<path d="M92.9141 28.1017V14.9686L89.9096 14.8345V12.1823H92.9141V7.06424L98.9115 5.90424V12.1823H109.757V7.30324L115.985 5.91006V12.1881H132.14V32.7592L131.562 32.8758H125.68V14.9803H115.985V27.4139C115.985 29.5357 118.782 31.4651 121.751 29.1568L122.584 32.188C121.179 32.9224 118.475 33.4412 115.818 33.4412C112.698 33.4412 109.757 30.7773 109.757 27.9968V14.9803H98.9115V25.7875C98.9115 29.7339 101.598 30.7656 104.909 29.1568L105.845 32.0422C102.101 34.403 92.9141 34.0708 92.9141 28.1075" fill="#2D2D29"/>
<path d="M24.7004 3.67749L24.7178 6.00333L8.71304 28.912H29.2187V12.701L35.4531 11.541V32.8641H0V30.6141L16.2994 7.76374H2.58849V3.81156L24.7004 3.67749Z" fill="#2D2D29"/>
<path d="M40.8958 12.6428L47.0435 11.3662L47.0088 14.0359C49.5164 12.1006 51.1516 11.541 55.1788 11.541C59.6219 11.541 62.1295 14.7179 62.1295 18.9791V32.8641H56.1494L56.1263 20.687C56.1263 17.3236 54.7859 15.4116 51.8565 15.4116C49.4875 15.4116 46.8933 17.3236 46.8933 20.5588V32.8583H40.8958V12.6428Z" fill="#2D2D29"/>
<path d="M154.992 12.8818L153.385 16.2627C139.004 10.964 139.986 34.6246 153.726 28.4573L155.223 31.9315C152.392 33.109 149.67 33.6336 146.579 33.3246C141.824 32.8467 137.334 29.285 136.768 24.3769C135.532 13.6104 146.232 9.18606 154.997 12.8818H154.992Z" fill="#2D2D29"/>
<path d="M158.476 14.4207L160.417 17.2886C162.977 14.7762 168.737 13.6337 169.997 17.9881C164.242 19.5212 155.812 20.5704 156.864 28.5447C157.083 30.206 158.793 32.3453 160.371 32.9108C164.323 34.3331 167.038 32.3803 169.991 30.0778L169.766 32.8641H175.422L176 32.7476V18.3379C176 10.2295 162.867 10.0021 158.481 14.4148L158.476 14.4207ZM168.373 27.8685C165.871 30.9347 162.046 29.6464 162.89 25.3678C163.41 22.733 167.743 21.4565 169.985 21.0134C170.083 23.211 169.806 26.114 168.373 27.8685Z" fill="#2D2D29"/>
<path d="M67.5203 26.4812C70.1261 34.1174 81.341 35.3241 87.0553 30.7598L85.0504 28.0493C79.8792 30.5208 73.4311 30.2935 73.2982 23.1003L87.4424 23.0711C87.4424 16.1985 84.4842 11.5935 77.5738 11.5935C72.0386 11.5935 66.7172 15.3358 66.7172 22.5115C66.7172 23.7473 67.0407 25.0705 67.5261 26.4812H67.5203ZM81.4623 19.8476H73.2982C73.2982 13.3189 81.4623 13.1557 81.4623 19.8476Z" fill="#2D2D29"/>
<path d="M32.1366 9.68154C34.1022 9.68154 35.6957 8.07389 35.6957 6.09077C35.6957 4.10764 34.1022 2.5 32.1366 2.5C30.1709 2.5 28.5774 4.10764 28.5774 6.09077C28.5774 8.07389 30.1709 9.68154 32.1366 9.68154Z" fill="#2D2D29"/>
<path d="M128.933 9.68154C130.899 9.68154 132.493 8.07389 132.493 6.09077C132.493 4.10764 130.899 2.5 128.933 2.5C126.968 2.5 125.374 4.10764 125.374 6.09077C125.374 8.07389 126.968 9.68154 128.933 9.68154Z" fill="#2D2D29"/>
<path d="M7.25702 42.1384V43.1643H2.20137V46.073H6.91612V47.099H2.20137V50.2642H7.29746V51.2901H0.993795V42.1325H7.26279L7.25702 42.1384Z" fill="#2D2D29"/>
<path d="M9.9264 44.6624H11.3131L12.8904 46.9824L14.5314 44.6624H15.8256L13.5607 47.7169L16.103 51.296H14.7163L12.8847 48.5504L11.0531 51.296H9.74151L12.2087 47.8101L9.92062 44.6682L9.9264 44.6624Z" fill="#2D2D29"/>
<path d="M23.5564 50.8705C23.0653 51.2493 22.4471 51.4359 21.7017 51.4359C21.1759 51.4359 20.7195 51.3484 20.3324 51.1794C19.9452 51.0104 19.6217 50.7714 19.3617 50.4624C19.0959 50.1535 18.8994 49.7862 18.7723 49.3607C18.6452 48.9352 18.5643 48.4688 18.5528 47.9617C18.5528 47.4546 18.6279 46.9941 18.7839 46.5744C18.9399 46.1547 19.1479 45.7932 19.4252 45.4843C19.7026 45.1754 20.0261 44.9364 20.4017 44.7673C20.7773 44.5983 21.1933 44.5108 21.6439 44.5108C22.2275 44.5108 22.7128 44.6332 23.1 44.8781C23.4871 45.1229 23.7933 45.4318 24.0302 45.8049C24.2613 46.1838 24.4231 46.5918 24.5155 47.0349C24.6022 47.4779 24.6427 47.9034 24.6253 48.3056H19.7083C19.7026 48.5971 19.7315 48.871 19.8124 49.1334C19.8875 49.3957 20.0088 49.623 20.1821 49.827C20.3555 50.0311 20.5693 50.1884 20.8293 50.3108C21.0893 50.4333 21.4013 50.4916 21.7595 50.4916C22.2159 50.4916 22.5915 50.3866 22.8862 50.1709C23.1809 49.9553 23.3715 49.6347 23.464 49.1975H24.5329C24.3884 49.9436 24.0706 50.5032 23.5795 50.8763L23.5564 50.8705ZM23.2906 46.6152C23.1924 46.382 23.0595 46.1838 22.8977 46.0206C22.7302 45.8515 22.5395 45.7233 22.3142 45.6242C22.0888 45.5251 21.8404 45.4785 21.5688 45.4785C21.2973 45.4785 21.0373 45.5251 20.8119 45.6242C20.5866 45.7233 20.3959 45.8574 20.2341 46.0264C20.0724 46.1955 19.9452 46.3937 19.8528 46.621C19.7603 46.8483 19.7026 47.0873 19.6852 47.3438H23.4582C23.4409 47.0873 23.3831 46.8425 23.2849 46.6152H23.2906Z" fill="#2D2D29"/>
<path d="M31.5241 45.8166C31.2526 45.5834 30.8885 45.4726 30.4321 45.4726C30.045 45.4726 29.7156 45.5426 29.4556 45.6883C29.1898 45.834 28.9818 46.0264 28.8258 46.2654C28.6698 46.5044 28.5543 46.7784 28.4907 47.0931C28.4214 47.4079 28.3867 47.7285 28.3867 48.0608C28.3867 48.3697 28.4214 48.667 28.4965 48.9585C28.5658 49.2499 28.6814 49.5064 28.8316 49.7338C28.9818 49.9611 29.1841 50.1418 29.4267 50.2817C29.6694 50.4158 29.9641 50.4857 30.305 50.4857C30.8365 50.4857 31.2583 50.3458 31.5588 50.0602C31.8592 49.7804 32.0441 49.3782 32.1135 48.8652H33.217C33.0957 49.6871 32.7952 50.3167 32.3099 50.7655C31.8246 51.2085 31.1601 51.4301 30.3223 51.4301C29.8196 51.4301 29.3805 51.3484 28.9934 51.1852C28.6063 51.022 28.2885 50.7947 28.0285 50.4916C27.7685 50.1943 27.5778 49.8329 27.4449 49.419C27.312 49.0051 27.2485 48.5504 27.2485 48.055C27.2485 47.5595 27.312 47.0932 27.4392 46.6618C27.5663 46.2304 27.7569 45.8515 28.0169 45.5309C28.2769 45.2103 28.6005 44.9597 28.9876 44.7731C29.3747 44.5924 29.8312 44.4992 30.3454 44.4992C30.721 44.4992 31.0677 44.5458 31.3912 44.6332C31.7148 44.7207 32.0037 44.8606 32.2579 45.0529C32.5064 45.2395 32.7144 45.4785 32.8761 45.7641C33.0379 46.0497 33.1361 46.3878 33.1824 46.7842H32.0615C31.9748 46.3645 31.8015 46.0381 31.5299 45.8107L31.5241 45.8166Z" fill="#2D2D29"/>
<path d="M40.7167 50.2467H40.6936C40.4625 50.6548 40.1736 50.9579 39.8154 51.1502C39.4571 51.3426 39.0411 51.4417 38.5558 51.4417C38.1225 51.4417 37.7642 51.3834 37.4753 51.2668C37.1864 51.1503 36.9553 50.987 36.7762 50.7714C36.5971 50.5557 36.4758 50.305 36.4006 50.0077C36.3313 49.7104 36.2909 49.384 36.2909 49.0284V44.6682H37.3713V49.1567C37.3713 49.5647 37.4927 49.8912 37.7296 50.1301C37.9664 50.3691 38.2958 50.4916 38.706 50.4916C39.0354 50.4916 39.3243 50.4391 39.5669 50.34C39.8096 50.2351 40.0118 50.0893 40.1678 49.9028C40.3296 49.7163 40.4509 49.4948 40.5318 49.2441C40.6127 48.9935 40.6532 48.7137 40.6532 48.4164V44.674H41.7336V51.3018H40.7167V50.2467Z" fill="#2D2D29"/>
<path d="M48.0373 44.6624V45.6242H46.7257V49.7396C46.7257 49.8678 46.7373 49.9728 46.7604 50.0485C46.7835 50.1243 46.8239 50.1826 46.8817 50.2292C46.9395 50.27 47.0262 50.2992 47.1302 50.3108C47.2342 50.3225 47.3728 50.3283 47.5462 50.3283H48.0431V51.2901H47.2168C46.9395 51.2901 46.6968 51.2727 46.5004 51.2319C46.3039 51.1911 46.1421 51.1211 46.015 51.022C45.8937 50.9171 45.8013 50.7772 45.7435 50.5848C45.6857 50.3983 45.6568 50.1476 45.6568 49.8387V45.6184H44.5359V44.6566H45.6568V42.6688H46.7373V44.6566H48.0489L48.0373 44.6624Z" fill="#2D2D29"/>
<path d="M51.1631 43.4732V42.1384H52.2436V43.4732H51.1631ZM52.2436 44.6624V51.2901H51.1631V44.6624H52.2436Z" fill="#2D2D29"/>
<path d="M57.5939 51.296L55.1556 44.6682H56.3632L58.2064 50.1943H58.2295L60.0206 44.6682H61.1531L58.7495 51.296H57.5939Z" fill="#2D2D29"/>
<path d="M68.6643 50.8705C68.1732 51.2493 67.555 51.4359 66.8096 51.4359C66.2838 51.4359 65.8274 51.3484 65.4403 51.1794C65.0532 51.0104 64.7296 50.7714 64.4696 50.4624C64.2038 50.1535 64.0074 49.7862 63.8802 49.3607C63.7531 48.9352 63.6722 48.4688 63.6607 47.9617C63.6607 47.4546 63.7358 46.9941 63.8918 46.5744C64.0478 46.1547 64.2558 45.7932 64.5331 45.4843C64.8105 45.1754 65.134 44.9364 65.5096 44.7673C65.8852 44.5983 66.3012 44.5108 66.7518 44.5108C67.3354 44.5108 67.8208 44.6332 68.2079 44.8781C68.595 45.1229 68.9012 45.4318 69.1381 45.8049C69.3692 46.1838 69.531 46.5918 69.6235 47.0349C69.7101 47.4779 69.7506 47.9034 69.7332 48.3056H64.8163C64.8105 48.5971 64.8394 48.871 64.9203 49.1334C64.9954 49.3957 65.1167 49.623 65.29 49.827C65.4634 50.0311 65.6772 50.1884 65.9372 50.3108C66.1972 50.4333 66.5092 50.4916 66.8674 50.4916C67.3239 50.4916 67.6994 50.3866 67.9941 50.1709C68.2888 49.9553 68.4794 49.6347 68.5719 49.1975H69.6408C69.4963 49.9436 69.1786 50.5032 68.6874 50.8763L68.6643 50.8705ZM68.4043 46.6152C68.3061 46.382 68.1732 46.1838 68.0114 46.0206C67.8439 45.8515 67.6532 45.7233 67.4279 45.6242C67.2025 45.5251 66.9541 45.4785 66.6825 45.4785C66.411 45.4785 66.1509 45.5251 65.9256 45.6242C65.7003 45.7233 65.5096 45.8574 65.3478 46.0264C65.186 46.1955 65.0589 46.3937 64.9665 46.621C64.874 46.8483 64.8163 47.0873 64.7989 47.3438H68.5719C68.5545 47.0873 68.4968 46.8425 68.3985 46.6152H68.4043Z" fill="#2D2D29"/>
<path d="M77.3196 43.1643V42.1384H84.5766V43.1643H81.549V51.296H80.3414V43.1643H77.3138H77.3196Z" fill="#2D2D29"/>
<path d="M91.6834 51.2668C91.4985 51.3776 91.2385 51.4359 90.9092 51.4359C90.6318 51.4359 90.4065 51.3543 90.2389 51.1969C90.0714 51.0395 89.9905 50.783 89.9905 50.4216C89.6958 50.783 89.3491 51.0395 88.9562 51.1969C88.5633 51.3543 88.1358 51.4359 87.6793 51.4359C87.3847 51.4359 87.1015 51.4009 86.8358 51.331C86.57 51.261 86.3389 51.1561 86.1424 51.0104C85.946 50.8646 85.7957 50.6723 85.6802 50.4391C85.5646 50.2059 85.5069 49.9203 85.5069 49.588C85.5069 49.2091 85.5704 48.906 85.6975 48.667C85.8246 48.428 85.9922 48.2357 86.2002 48.0841C86.4082 47.9325 86.6451 47.8218 86.9109 47.746C87.1767 47.6702 87.454 47.6061 87.7313 47.5537C88.026 47.4954 88.3091 47.4487 88.5749 47.4196C88.8407 47.3904 89.0776 47.3496 89.2798 47.2913C89.482 47.2389 89.6438 47.1573 89.7651 47.0465C89.8865 46.9416 89.9443 46.7842 89.9443 46.5802C89.9443 46.3412 89.898 46.1488 89.8114 46.0031C89.7247 45.8574 89.6091 45.7466 89.4705 45.6708C89.3318 45.5951 89.1758 45.5426 89.0025 45.5193C88.8291 45.496 88.6558 45.4785 88.4882 45.4785C88.0318 45.4785 87.6504 45.5659 87.3442 45.7408C87.038 45.9157 86.8762 46.2479 86.8473 46.7376H85.7669C85.7842 46.3295 85.8709 45.9798 86.0211 45.7C86.1713 45.4202 86.3793 45.187 86.6335 45.0121C86.8878 44.8373 87.1767 44.709 87.506 44.6332C87.8353 44.5575 88.182 44.5167 88.5518 44.5167C88.8465 44.5167 89.1411 44.54 89.4358 44.5808C89.7305 44.6216 89.9905 44.709 90.2331 44.8431C90.47 44.9772 90.6607 45.1637 90.8052 45.4027C90.9496 45.6417 91.0189 45.9506 91.0189 46.3354V49.7396C91.0189 49.9961 91.0363 50.1826 91.0652 50.305C91.0941 50.4274 91.1923 50.4857 91.3656 50.4857C91.4581 50.4857 91.5678 50.4682 91.695 50.4333V51.2785L91.6834 51.2668ZM89.9327 47.8684C89.794 47.9734 89.6207 48.0433 89.4011 48.0899C89.1816 48.1366 88.9505 48.1774 88.7078 48.2065C88.4651 48.2357 88.2224 48.2706 87.974 48.3114C87.7255 48.3522 87.506 48.4105 87.3153 48.498C87.1246 48.5854 86.9629 48.702 86.8358 48.8594C86.7144 49.0168 86.6509 49.2325 86.6509 49.5064C86.6509 49.6871 86.6855 49.8387 86.7607 49.9611C86.83 50.0835 86.9282 50.1826 87.038 50.2584C87.1535 50.3342 87.2864 50.3925 87.4367 50.4216C87.5869 50.4566 87.7487 50.4741 87.922 50.4741C88.2802 50.4741 88.5807 50.4274 88.8349 50.3283C89.0891 50.2292 89.2971 50.1068 89.4589 49.9611C89.6207 49.8095 89.7363 49.6522 89.8171 49.4773C89.898 49.3024 89.9327 49.1392 89.9327 48.9876V47.8684Z" fill="#2D2D29"/>
<path d="M95.7048 42.1384V51.296H94.6243V42.1384H95.7048Z" fill="#2D2D29"/>
<path d="M103.904 50.8705C103.412 51.2493 102.794 51.4359 102.049 51.4359C101.523 51.4359 101.067 51.3484 100.68 51.1794C100.292 51.0104 99.9689 50.7714 99.7089 50.4624C99.4431 50.1535 99.2466 49.7862 99.1195 49.3607C98.9924 48.9352 98.9115 48.4688 98.9 47.9617C98.9 47.4546 98.9751 46.9941 99.1311 46.5744C99.2813 46.1547 99.4951 45.7932 99.7724 45.4843C100.05 45.1754 100.373 44.9364 100.749 44.7673C101.124 44.5983 101.54 44.5108 101.985 44.5108C102.569 44.5108 103.054 44.6332 103.441 44.8781C103.828 45.1229 104.135 45.4318 104.372 45.8049C104.603 46.1838 104.765 46.5918 104.857 47.0349C104.949 47.4779 104.984 47.9034 104.967 48.3056H100.05C100.044 48.5971 100.073 48.871 100.154 49.1334C100.229 49.3957 100.35 49.623 100.524 49.827C100.691 50.0252 100.911 50.1884 101.171 50.3108C101.431 50.4333 101.743 50.4916 102.101 50.4916C102.557 50.4916 102.933 50.3866 103.228 50.1709C103.522 49.9553 103.713 49.6347 103.805 49.1975H104.874C104.73 49.9436 104.412 50.5032 103.921 50.8763L103.904 50.8705ZM103.638 46.6152C103.54 46.382 103.407 46.1838 103.245 46.0206C103.077 45.8515 102.887 45.7233 102.661 45.6242C102.436 45.5251 102.188 45.4785 101.916 45.4785C101.644 45.4785 101.384 45.5251 101.159 45.6242C100.934 45.7233 100.743 45.8574 100.581 46.0264C100.42 46.1955 100.292 46.3937 100.2 46.621C100.108 46.8483 100.05 47.0873 100.032 47.3438H103.805C103.788 47.0873 103.73 46.8425 103.632 46.6152H103.638Z" fill="#2D2D29"/>
<path d="M108.959 45.7116H108.982C109.433 44.9072 110.144 44.505 111.12 44.505C111.554 44.505 111.912 44.5633 112.201 44.6857C112.49 44.8081 112.721 44.9713 112.9 45.187C113.079 45.4027 113.2 45.6533 113.275 45.9506C113.345 46.2479 113.385 46.5744 113.385 46.9299V51.2901H112.305V46.8017C112.305 46.3937 112.183 46.0672 111.946 45.8282C111.71 45.5892 111.38 45.4668 110.97 45.4668C110.641 45.4668 110.352 45.5193 110.109 45.6184C109.866 45.7175 109.664 45.869 109.508 46.0556C109.352 46.2421 109.225 46.4636 109.144 46.7143C109.063 46.9649 109.023 47.2447 109.023 47.542V51.2843H107.942V44.6566H108.959V45.7116Z" fill="#2D2D29"/>
<path d="M119.689 44.6624V45.6242H118.377V49.7396C118.377 49.8678 118.389 49.9728 118.412 50.0485C118.435 50.1243 118.475 50.1826 118.533 50.2292C118.591 50.27 118.678 50.2992 118.782 50.3108C118.886 50.3225 119.024 50.3283 119.192 50.3283H119.689V51.2901H118.863C118.585 51.2901 118.343 51.2727 118.146 51.2319C117.95 51.1911 117.788 51.1211 117.661 51.022C117.539 50.9171 117.447 50.7772 117.389 50.5848C117.331 50.3983 117.303 50.1476 117.303 49.8387V45.6184H116.182V44.6566H117.303V42.6688H118.383V44.6566H119.695L119.689 44.6624Z" fill="#2D2D29"/>
<path d="M132.874 43.3858C132.469 43.0885 131.955 42.9428 131.331 42.9428C131.077 42.9428 130.829 42.9661 130.58 43.0186C130.337 43.071 130.118 43.1526 129.927 43.275C129.737 43.3975 129.586 43.5548 129.471 43.7589C129.355 43.9629 129.297 44.2077 129.297 44.5108C129.297 44.7906 129.378 45.0238 129.546 45.1987C129.713 45.3735 129.933 45.5193 130.205 45.63C130.476 45.7408 130.794 45.834 131.141 45.904C131.487 45.9739 131.84 46.0556 132.204 46.143C132.562 46.2304 132.92 46.3295 133.267 46.4461C133.613 46.5627 133.925 46.7201 134.203 46.9124C134.48 47.1106 134.7 47.3555 134.861 47.6586C135.029 47.9559 135.11 48.3348 135.11 48.7894C135.11 49.2791 135 49.693 134.786 50.0369C134.567 50.3808 134.289 50.6664 133.954 50.8821C133.613 51.0978 133.238 51.261 132.816 51.3543C132.394 51.4534 131.978 51.5 131.562 51.5C131.054 51.5 130.574 51.4359 130.118 51.3076C129.667 51.1794 129.269 50.987 128.922 50.7247C128.581 50.4624 128.309 50.1301 128.107 49.7221C127.911 49.3141 127.807 48.8361 127.807 48.2765H128.951C128.951 48.6612 129.026 48.9935 129.17 49.2733C129.315 49.5531 129.511 49.7804 129.754 49.9611C129.997 50.1418 130.28 50.2759 130.597 50.3575C130.921 50.4449 131.25 50.4857 131.591 50.4857C131.863 50.4857 132.134 50.4624 132.412 50.4099C132.689 50.3575 132.937 50.27 133.157 50.1476C133.377 50.0252 133.556 49.8562 133.689 49.6405C133.821 49.4248 133.891 49.1508 133.891 48.8186C133.891 48.5038 133.81 48.2473 133.642 48.0491C133.475 47.8509 133.255 47.6936 132.984 47.5653C132.712 47.4371 132.394 47.3438 132.048 47.2622C131.701 47.1864 131.349 47.1048 130.985 47.0232C130.626 46.9416 130.268 46.8483 129.921 46.7434C129.575 46.6385 129.263 46.4986 128.985 46.3179C128.708 46.143 128.488 45.9157 128.327 45.6359C128.165 45.3561 128.078 45.0121 128.078 44.5924C128.078 44.1319 128.171 43.7297 128.356 43.3916C128.54 43.0535 128.789 42.7737 129.101 42.5581C129.413 42.3424 129.76 42.1792 130.158 42.0684C130.551 41.9635 130.956 41.9052 131.372 41.9052C131.84 41.9052 132.267 41.9635 132.666 42.0742C133.065 42.185 133.411 42.3599 133.712 42.5989C134.012 42.8379 134.249 43.141 134.422 43.5024C134.596 43.8638 134.688 44.301 134.705 44.8023H133.561C133.492 44.1436 133.261 43.6656 132.857 43.3741L132.874 43.3858Z" fill="#2D2D29"/>
<path d="M142.91 50.8705C142.419 51.2493 141.801 51.4359 141.055 51.4359C140.53 51.4359 140.073 51.3484 139.686 51.1794C139.299 51.0104 138.975 50.7714 138.715 50.4624C138.45 50.1535 138.253 49.7862 138.126 49.3607C137.999 48.9352 137.918 48.4688 137.906 47.9617C137.906 47.4546 137.982 46.9941 138.138 46.5744C138.288 46.1547 138.502 45.7932 138.779 45.4843C139.056 45.1754 139.38 44.9364 139.755 44.7673C140.131 44.5983 140.547 44.5108 140.992 44.5108C141.575 44.5108 142.061 44.6332 142.448 44.8781C142.835 45.1229 143.141 45.4318 143.378 45.8049C143.609 46.1838 143.771 46.5918 143.863 47.0349C143.95 47.4779 143.991 47.9034 143.973 48.3056H139.056C139.045 48.5971 139.079 48.871 139.16 49.1334C139.235 49.3957 139.357 49.623 139.53 49.827C139.698 50.0252 139.917 50.1884 140.177 50.3108C140.437 50.4333 140.749 50.4916 141.107 50.4916C141.564 50.4916 141.939 50.3866 142.234 50.1709C142.529 49.9553 142.719 49.6347 142.812 49.1975H143.881C143.736 49.9436 143.419 50.5032 142.927 50.8763L142.91 50.8705ZM142.65 46.6152C142.552 46.382 142.419 46.1838 142.257 46.0206C142.095 45.8574 141.899 45.7233 141.674 45.6242C141.448 45.5251 141.2 45.4785 140.928 45.4785C140.657 45.4785 140.397 45.5251 140.171 45.6242C139.946 45.7233 139.755 45.8574 139.594 46.0264C139.432 46.1955 139.305 46.3937 139.212 46.621C139.12 46.8483 139.062 47.0873 139.045 47.3438H142.818C142.8 47.0873 142.743 46.8425 142.644 46.6152H142.65Z" fill="#2D2D29"/>
<path d="M152.773 51.2668C152.588 51.3776 152.328 51.4359 151.999 51.4359C151.721 51.4359 151.496 51.3543 151.334 51.1969C151.167 51.0395 151.086 50.783 151.086 50.4216C150.791 50.783 150.444 51.0395 150.052 51.1969C149.659 51.3543 149.231 51.4359 148.775 51.4359C148.48 51.4359 148.197 51.4009 147.931 51.331C147.665 51.261 147.434 51.1561 147.238 51.0104C147.041 50.8646 146.891 50.6723 146.775 50.4391C146.66 50.2059 146.602 49.9203 146.602 49.588C146.602 49.2091 146.666 48.906 146.793 48.667C146.92 48.428 147.087 48.2357 147.295 48.0841C147.503 47.9325 147.74 47.8218 148.006 47.746C148.272 47.6702 148.549 47.6061 148.827 47.5537C149.121 47.4954 149.404 47.4487 149.67 47.4196C149.936 47.3904 150.173 47.3496 150.375 47.2913C150.577 47.2389 150.739 47.1573 150.86 47.0465C150.982 46.9416 151.04 46.7842 151.04 46.5802C151.04 46.3412 150.993 46.1488 150.907 46.0031C150.82 45.8574 150.704 45.7466 150.566 45.6708C150.427 45.5951 150.271 45.5426 150.098 45.5193C149.924 45.496 149.751 45.4785 149.584 45.4785C149.127 45.4785 148.746 45.5659 148.44 45.7408C148.133 45.9157 147.971 46.2479 147.943 46.7376H146.862C146.879 46.3295 146.966 45.9798 147.116 45.7C147.267 45.4202 147.475 45.187 147.729 45.0121C147.983 44.8373 148.272 44.709 148.601 44.6332C148.925 44.5575 149.277 44.5167 149.647 44.5167C149.942 44.5167 150.236 44.54 150.531 44.5808C150.826 44.6216 151.086 44.709 151.328 44.8431C151.565 44.9772 151.756 45.1637 151.9 45.4027C152.045 45.6417 152.114 45.9506 152.114 46.3354V49.7396C152.114 49.9961 152.132 50.1826 152.16 50.305C152.189 50.4274 152.288 50.4857 152.461 50.4857C152.553 50.4857 152.663 50.4682 152.79 50.4333V51.2785L152.773 51.2668ZM151.022 47.8684C150.884 47.9734 150.71 48.0433 150.491 48.0899C150.271 48.1366 150.04 48.1774 149.797 48.2065C149.555 48.2357 149.312 48.2706 149.064 48.3114C148.821 48.3522 148.596 48.4105 148.405 48.498C148.208 48.5854 148.052 48.702 147.925 48.8594C147.804 49.0168 147.74 49.2325 147.74 49.5064C147.74 49.6871 147.775 49.8387 147.85 49.9611C147.92 50.0835 148.018 50.1826 148.128 50.2584C148.243 50.3342 148.376 50.3925 148.526 50.4216C148.676 50.4566 148.838 50.4741 149.012 50.4741C149.37 50.4741 149.67 50.4274 149.924 50.3283C150.179 50.2292 150.387 50.1068 150.548 49.9611C150.71 49.8095 150.826 49.6522 150.907 49.4773C150.988 49.3024 151.022 49.1392 151.022 48.9876V47.8684Z" fill="#2D2D29"/>
<path d="M156.627 44.6624V46.0614H156.65C156.91 45.5251 157.233 45.1229 157.615 44.8664C157.996 44.6099 158.481 44.4875 159.065 44.505V45.6592C158.632 45.6592 158.262 45.7175 157.961 45.8399C157.661 45.9623 157.413 46.1372 157.222 46.3645C157.037 46.5977 156.898 46.8775 156.817 47.2039C156.737 47.5303 156.69 47.9092 156.69 48.3406V51.2901H155.61V44.6624H156.627Z" fill="#2D2D29"/>
<path d="M165.45 45.8166C165.178 45.5834 164.814 45.4726 164.358 45.4726C163.97 45.4726 163.641 45.5426 163.381 45.6883C163.115 45.834 162.907 46.0264 162.751 46.2654C162.595 46.5044 162.48 46.7784 162.416 47.0931C162.347 47.4079 162.312 47.7285 162.312 48.0608C162.312 48.3697 162.347 48.667 162.422 48.9585C162.491 49.2499 162.607 49.5064 162.757 49.7338C162.907 49.9611 163.11 50.1418 163.352 50.2817C163.595 50.4158 163.89 50.4857 164.23 50.4857C164.762 50.4857 165.184 50.3458 165.484 50.0602C165.785 49.7804 165.97 49.3782 166.039 48.8652H167.143C167.021 49.6871 166.721 50.3167 166.235 50.7655C165.75 51.2085 165.086 51.4301 164.248 51.4301C163.745 51.4301 163.306 51.3484 162.919 51.1852C162.532 51.022 162.208 50.7947 161.954 50.4916C161.694 50.1943 161.503 49.8329 161.37 49.419C161.238 49.0051 161.174 48.5504 161.174 48.055C161.174 47.5595 161.238 47.0932 161.365 46.6618C161.492 46.2304 161.682 45.8515 161.942 45.5309C162.202 45.2103 162.526 44.9597 162.913 44.7731C163.3 44.5924 163.757 44.4992 164.271 44.4992C164.646 44.4992 164.993 44.5458 165.317 44.6332C165.64 44.7207 165.929 44.8606 166.183 45.0529C166.432 45.2395 166.64 45.4785 166.802 45.7641C166.963 46.0497 167.062 46.3878 167.108 46.7842H165.987C165.9 46.3645 165.721 46.0381 165.455 45.8107L165.45 45.8166Z" fill="#2D2D29"/>
<path d="M171.297 42.1384V45.6417H171.32C171.407 45.4377 171.522 45.2628 171.678 45.1229C171.828 44.983 172.002 44.8664 172.192 44.779C172.383 44.6915 172.579 44.6216 172.787 44.5808C172.995 44.54 173.198 44.5167 173.388 44.5167C173.822 44.5167 174.18 44.5749 174.469 44.6974C174.758 44.8198 174.989 44.983 175.168 45.1987C175.347 45.4143 175.468 45.665 175.544 45.9623C175.613 46.2596 175.653 46.586 175.653 46.9416V51.3018H174.573V46.8133C174.573 46.4053 174.452 46.0789 174.215 45.8399C173.978 45.6009 173.648 45.4785 173.238 45.4785C172.909 45.4785 172.62 45.5309 172.383 45.63C172.146 45.7291 171.938 45.8807 171.782 46.0672C171.62 46.2537 171.499 46.4753 171.418 46.7259C171.337 46.9766 171.297 47.2564 171.297 47.5537V51.296H170.216V42.1384H171.297Z" fill="#2D2D29"/>
</svg>
