<?xml version="1.0" encoding="UTF-8" standalone="no"?>
<!DOCTYPE svg PUBLIC "-//W3C//DTD SVG 1.1//EN" "http://www.w3.org/Graphics/SVG/1.1/DTD/svg11.dtd">
<svg width="100%" height="100%" viewBox="0 0 305 53" version="1.1" xmlns="http://www.w3.org/2000/svg" xmlns:xlink="http://www.w3.org/1999/xlink" xml:space="preserve" xmlns:serif="http://www.serif.com/" style="fill-rule:evenodd;clip-rule:evenodd;stroke-linejoin:round;stroke-miterlimit:2;">
    <g transform="matrix(1,0,0,0.982413,0,0)">
        <path d="M160.81,43.92L160.81,21.39L155.61,21.16L155.61,16.61L160.81,16.61L160.81,7.83L171.19,5.84L171.19,16.61L189.96,16.61L189.96,8.24L200.74,5.85L200.74,16.62L228.7,16.62L228.7,51.91L227.7,52.11L217.52,52.11L217.52,21.41L200.74,21.41L200.74,42.74C200.74,46.38 205.58,49.69 210.72,45.73L212.16,50.93C209.73,52.19 205.05,53.08 200.45,53.08C195.05,53.08 189.96,48.51 189.96,43.74L189.96,21.41L171.19,21.41L171.19,39.95C171.19,46.72 175.84,48.49 181.57,45.73L183.19,50.68C176.71,54.73 160.81,54.16 160.81,43.93" style="fill-rule:nonzero;"/>
        <path d="M42.75,2.02L42.78,6.01L15.08,45.31L50.57,45.31L50.57,17.5L61.36,15.51L61.36,52.09L0,52.09L0,48.23L28.21,9.03L4.48,9.03L4.48,2.25L42.75,2.02Z" style="fill-rule:nonzero;"/>
        <path d="M70.78,17.4L81.42,15.21L81.36,19.79C85.7,16.47 88.53,15.51 95.5,15.51C103.19,15.51 107.53,20.96 107.53,28.27L107.53,52.09L97.18,52.09L97.14,31.2C97.14,25.43 94.82,22.15 89.75,22.15C85.65,22.15 81.16,25.43 81.16,30.98L81.16,52.08L70.78,52.08L70.78,17.4Z" style="fill-rule:nonzero;"/>
        <path d="M268.25,17.81L265.47,23.61C240.58,14.52 242.28,55.11 266.06,44.53L268.65,50.49C263.75,52.51 259.04,53.41 253.69,52.88C245.46,52.06 237.69,45.95 236.71,37.53C234.57,19.06 253.09,11.47 268.26,17.81L268.25,17.81Z" style="fill-rule:nonzero;"/>
        <path d="M274.28,20.45L277.64,25.37C282.07,21.06 292.04,19.1 294.22,26.57C284.26,29.2 269.67,31 271.49,44.68C271.87,47.53 274.83,51.2 277.56,52.17C284.4,54.61 289.1,51.26 294.21,47.31L293.82,52.09L303.61,52.09L304.61,51.89L304.61,27.17C304.61,13.26 281.88,12.87 274.29,20.44L274.28,20.45ZM291.41,43.52C287.08,48.78 280.46,46.57 281.92,39.23C282.82,34.71 290.32,32.52 294.2,31.76C294.37,35.53 293.89,40.51 291.41,43.52Z" style="fill-rule:nonzero;"/>
        <path d="M116.86,41.14C121.37,54.24 140.78,56.31 150.67,48.48L147.2,43.83C138.25,48.07 127.09,47.68 126.86,35.34L151.34,35.29C151.34,23.5 146.22,15.6 134.26,15.6C124.68,15.6 115.47,22.02 115.47,34.33C115.47,36.45 116.03,38.72 116.87,41.14L116.86,41.14ZM140.99,29.76L126.86,29.76C126.86,18.56 140.99,18.28 140.99,29.76Z" style="fill-rule:nonzero;"/>
        <circle cx="55.62" cy="6.16" r="6.16"/>
        <circle cx="223.15" cy="6.16" r="6.16"/>
    </g>
</svg>
