<svg width="19" height="19" viewBox="0 0 19 19" fill="none" xmlns="http://www.w3.org/2000/svg">
<rect width="19" height="19" fill="#939393"/>
<g id="Contacto/Desktop" clip-path="url(#clip0_252_173)">
<rect width="1440" height="3671" transform="translate(-981 -1178)" fill="#F8F7F7"/>
<g id="Form &#38; map">
<g id="mapa">
<rect id="Rectangle 935" x="-34" y="-416.879" width="413" height="687" rx="29" fill="#F2F2F2"/>
<g id="Frame 2474">
<g id="Frame 2463">
<g id="icon / phone" clip-path="url(#clip1_252_173)">
<path id="Vector" d="M7.74534 5.93604C8.07029 5.61052 8.25279 5.16937 8.25279 4.70942C8.25279 4.24947 8.07029 3.80831 7.74534 3.48279L5.90484 1.64454C5.57952 1.31923 5.13829 1.13647 4.67822 1.13647C4.21815 1.13647 3.77692 1.31923 3.45159 1.64454L2.44284 2.65404C2.01841 3.0778 1.75372 3.63538 1.6937 4.23213C1.63369 4.82888 1.78205 5.42801 2.11359 5.92779C5.08427 10.3992 8.91768 14.2326 13.3891 17.2033C13.8891 17.5344 14.4881 17.6826 15.0847 17.6229C15.6814 17.5632 16.2392 17.2992 16.6636 16.8755L17.6723 15.866C17.8335 15.705 17.9614 15.5138 18.0486 15.3033C18.1358 15.0928 18.1807 14.8672 18.1807 14.6394C18.1807 14.4116 18.1358 14.186 18.0486 13.9755C17.9614 13.765 17.8335 13.5738 17.6723 13.4128L15.8326 11.573C15.6716 11.4119 15.4803 11.284 15.2699 11.1968C15.0594 11.1096 14.8338 11.0647 14.606 11.0647C14.3781 11.0647 14.1525 11.1096 13.9421 11.1968C13.7316 11.284 13.5404 11.4119 13.3793 11.573L12.7658 12.1865C10.71 10.4947 8.82315 8.60735 7.13184 6.55104L7.74534 5.93604Z" stroke="black" stroke-width="0.833333" stroke-linecap="round" stroke-linejoin="round"/>
</g>
</g>
</g>
</g>
</g>
</g>
<defs>
<clipPath id="clip0_252_173">
<rect width="1440" height="3671" fill="white" transform="translate(-981 -1178)"/>
</clipPath>
<clipPath id="clip1_252_173">
<rect width="18" height="18" fill="white" transform="translate(0.930664 0.385986)"/>
</clipPath>
</defs>
</svg>
