<svg width="21" height="21" viewBox="0 0 21 21" fill="none" xmlns="http://www.w3.org/2000/svg">
<path d="M9.93066 4.4884C11.2567 4.4884 12.5285 5.01332 13.4662 5.94766C14.4039 6.88201 14.9307 8.14926 14.9307 9.47063C14.9307 11.8269 11.264 17.6953 10.2113 19.3354C10.1812 19.3823 10.1397 19.4209 10.0906 19.4477C10.0416 19.4744 9.98657 19.4884 9.93066 19.4884C9.87476 19.4884 9.81976 19.4744 9.77071 19.4477C9.72167 19.4209 9.68016 19.3823 9.65 19.3354C8.59733 17.696 4.93066 11.8269 4.93066 9.47063C4.93066 8.14926 5.45745 6.88201 6.39513 5.94766C7.33281 5.01332 8.60458 4.4884 9.93066 4.4884Z" stroke="black" stroke-width="0.833333" stroke-linecap="round" stroke-linejoin="round"/>
<path d="M7.93066 9.47063C7.93066 9.99918 8.14138 10.5061 8.51645 10.8798C8.89152 11.2536 9.40023 11.4635 9.93066 11.4635C10.4611 11.4635 10.9698 11.2536 11.3449 10.8798C11.72 10.5061 11.9307 9.99918 11.9307 9.47063C11.9307 8.94208 11.72 8.43518 11.3449 8.06144C10.9698 7.6877 10.4611 7.47774 9.93066 7.47774C9.40023 7.47774 8.89152 7.6877 8.51645 8.06144C8.14138 8.43518 7.93066 8.94208 7.93066 9.47063Z" stroke="black" stroke-width="0.833333" stroke-linecap="round" stroke-linejoin="round"/>
</svg>
